<mxfile host="Electron" modified="2024-10-18T15:13:56.049Z" agent="Mozilla/5.0 (Windows NT 10.0; Win64; x64) AppleWebKit/537.36 (KHTML, like Gecko) draw.io/21.5.0 Chrome/112.0.5615.204 Electron/24.5.1 Safari/537.36" etag="perFPTSHGWYiA8bnGj69" version="21.5.0" type="device" pages="2">
  <diagram name="fad-single-vm" id="VOJnvQhmk6kvTq0DFbzb">
    <mxGraphModel dx="794" dy="511" grid="1" gridSize="10" guides="1" tooltips="1" connect="1" arrows="1" fold="1" page="1" pageScale="1" pageWidth="827" pageHeight="1169" math="0" shadow="0">
      <root>
        <mxCell id="igetMSzc9jm7YL5A2QUc-0" />
        <mxCell id="igetMSzc9jm7YL5A2QUc-1" parent="igetMSzc9jm7YL5A2QUc-0" />
        <mxCell id="igetMSzc9jm7YL5A2QUc-3" value="" style="rounded=1;whiteSpace=wrap;html=1;sketch=0;fontSize=10;strokeColor=#007fff;fillColor=#FFFFFF;gradientColor=none;gradientDirection=south;absoluteArcSize=1;arcSize=4;fontFamily=Helvetica;" parent="igetMSzc9jm7YL5A2QUc-1" vertex="1">
          <mxGeometry x="220" y="130" width="859.9999999999999" height="600" as="geometry" />
        </mxCell>
        <mxCell id="ILMphzCwu4VwZAjetVbx-0" value="" style="vsdxID=12;fillColor=#f0f0f0;gradientColor=none;shape=stencil(hZNRcoMgEIZPwysDrJjw2EmTC/QETqSVqdUMMa3p6UtcNIAk9Qn+/Ve+XVgCu3NTnTQR7DzY/lP/mHpoCLwSIUzXaGsGtyKwJ7B7763+sP2lq3F/qpxTsEnRNebwm1uwyh7fzK9GjVHgG4kBzPzqv28njj6OoevsVsUkHNB7vFg089g9b2nBVPCVJcZHMcfLjc8Q0Q9G8MRUFt4AoWE6nr04gtZ0Aa3a0kLGxM9wlaIgEuSY0DmUShAfFQXrFMi1Lccd5CwKk/+wLyl3SW5X/EuFXuIsaXLYNIg9j3iDe8kkZN7F/aJ5ShHf/FWsa4HYAdkOZSifv123mIYEx8e0Lc5YGE+Hykk4kLD/Aw==);strokeColor=#bfbfbf;spacingTop=-3;spacingBottom=-3;spacingLeft=-3;spacingRight=-3;labelBackgroundColor=none;rounded=1;html=1;whiteSpace=wrap;arcSize=17;" parent="igetMSzc9jm7YL5A2QUc-1" vertex="1">
          <mxGeometry x="561" y="170" width="206" height="490" as="geometry" />
        </mxCell>
        <mxCell id="igetMSzc9jm7YL5A2QUc-94" style="vsdxID=7;fillColor=#ffffff;gradientColor=none;fillOpacity=0;strokeOpacity=0;shape=stencil(pZPRDoIgFIafhlt35Cy1y2b2Hi4xWSYOteztg7EMNXVMrg7w/4fv3zgE46ZIa0YoNK0Ud/biWVsQPBNKeVUwyVtVEUwIxrmQ7CZFV2VmX6daqauHeOoOvfGBdlB427uLEZa8soToReGy9tpJ09Uf1MHRXl+vP3q2pxtyOpbjjAVnMHDaZj94QbQHX/lD+xrd4izZF+ONef8kBKd44JQGnOBhF/nqp5pgwyomrGJN/4uqfxOS87I0AzagqGI6UerITCMmHw==);spacingTop=-3;spacingBottom=-3;spacingLeft=-3;spacingRight=-3;labelBackgroundColor=none;rounded=0;html=1;whiteSpace=wrap;" parent="igetMSzc9jm7YL5A2QUc-1" vertex="1">
          <mxGeometry x="193" y="101" width="918" height="626" as="geometry" />
        </mxCell>
        <mxCell id="igetMSzc9jm7YL5A2QUc-110" value="" style="group" parent="igetMSzc9jm7YL5A2QUc-1" vertex="1" connectable="0">
          <mxGeometry x="810" y="565" width="207" height="100" as="geometry" />
        </mxCell>
        <mxCell id="igetMSzc9jm7YL5A2QUc-111" style="vsdxID=114;fillColor=#f0f0f0;gradientColor=none;shape=stencil(fZPdcoMgEIWfhlsHWDXhspMmL9AncJRUplYzxDSapw9xpfyExCvcPQe+XVgCu3NbnSTh9Dzq4UdeVTO2BD4J56pvpVajWRHYE9gdBy2/9XDpG/w/VUbJ6RKRDXrYQ81ppesvdZMYoxmwTYEJdP4Of48TpzWPqXndIcvFEjigtr5oFLNQbX+zQlDvgxzzE7f5crM6eLDBBPa8AlYBWAsrHAH9MBCd6j1gsc3ybQAdWp6hhTA9iMBDTkZphPmqMIgNkGpcAts5/ssoy3fUzuDKyFnI7VcWl2JR/X5F9C9Z3a0kDIlX4a45hp/Ce5/5cy0QKiDZnwTl+5drFsuI4PCorsMJ8/PxSJkQjiPs7w==);strokeColor=#bfbfbf;spacingTop=-3;spacingBottom=-3;spacingLeft=-3;spacingRight=-3;labelBackgroundColor=none;rounded=1;html=1;whiteSpace=wrap;opacity=50;textOpacity=50;" parent="igetMSzc9jm7YL5A2QUc-110" vertex="1">
          <mxGeometry width="207" height="100" as="geometry" />
        </mxCell>
        <mxCell id="igetMSzc9jm7YL5A2QUc-112" value="&lt;p style=&quot;align:center;margin-left:0;margin-right:0;margin-top:0px;margin-bottom:0px;text-indent:0;valign:middle;direction:ltr;&quot;&gt;&lt;font style=&quot;font-size:9px;font-family:Arial;color:#000000;direction:ltr;letter-spacing:0px;line-height:100%;opacity:1&quot;&gt;Protected Z&lt;br&gt;&lt;/font&gt;&lt;/p&gt;" style="text;vsdxID=113;fillColor=none;gradientColor=none;strokeColor=none;spacingTop=-3;spacingBottom=-3;spacingLeft=-3;spacingRight=-3;labelBackgroundColor=none;rounded=1;html=1;whiteSpace=wrap;verticalAlign=middle;align=center;;html=1;opacity=50;textOpacity=50;" parent="igetMSzc9jm7YL5A2QUc-110" vertex="1">
          <mxGeometry x="12.700000000000045" y="11.829999999999984" width="182.88" height="12.7" as="geometry" />
        </mxCell>
        <mxCell id="igetMSzc9jm7YL5A2QUc-113" value="" style="aspect=fixed;html=1;points=[];align=center;image;fontSize=12;image=img/lib/azure2/networking/Route_Tables.svg;rounded=1;sketch=0;strokeColor=#007fff;fillColor=#FFFFFF;gradientColor=none;gradientDirection=south;fontFamily=Helvetica;opacity=50;textOpacity=50;" parent="igetMSzc9jm7YL5A2QUc-110" vertex="1">
          <mxGeometry x="4" y="64" width="33.03" height="32" as="geometry" />
        </mxCell>
        <mxCell id="igetMSzc9jm7YL5A2QUc-114" value=". . ." style="text;html=1;strokeColor=none;fillColor=none;align=center;verticalAlign=middle;whiteSpace=wrap;rounded=0;fontFamily=Helvetica;fontSize=10;" parent="igetMSzc9jm7YL5A2QUc-1" vertex="1">
          <mxGeometry x="883.5" y="535" width="60" height="30" as="geometry" />
        </mxCell>
        <mxCell id="igetMSzc9jm7YL5A2QUc-58" value="&lt;p style=&quot;align:center;margin-left:0;margin-right:0;margin-top:0px;margin-bottom:0px;text-indent:0;valign:middle;direction:ltr;&quot;&gt;&lt;font style=&quot;font-size:9px;font-family:Arial;color:#000000;direction:ltr;letter-spacing:0px;line-height:100%;opacity:1&quot;&gt;Internal&lt;/font&gt;&lt;/p&gt;" style="text;vsdxID=11;fillColor=none;gradientColor=none;strokeColor=none;spacingTop=-3;spacingBottom=-3;spacingLeft=-3;spacingRight=-3;labelBackgroundColor=none;rounded=1;html=1;whiteSpace=wrap;verticalAlign=middle;align=center;;html=1;" parent="igetMSzc9jm7YL5A2QUc-1" vertex="1">
          <mxGeometry x="572.9466019417475" y="187.8886567164179" width="184.49417475728154" height="18.576119402985075" as="geometry" />
        </mxCell>
        <mxCell id="igetMSzc9jm7YL5A2QUc-59" value="&lt;span style=&quot;&quot;&gt;172.16.136.64/26&amp;nbsp;&lt;/span&gt;" style="text;html=1;strokeColor=none;fillColor=none;align=right;verticalAlign=middle;whiteSpace=wrap;rounded=0;fontFamily=Helvetica;fontSize=10;" parent="igetMSzc9jm7YL5A2QUc-1" vertex="1">
          <mxGeometry x="676.442427184466" y="637.2089552238806" width="91.74757281553397" height="27.791044776119403" as="geometry" />
        </mxCell>
        <mxCell id="sIdN9Mmn7lUllPxHDhFa-4" value="&lt;font color=&quot;#000000&quot;&gt;Public IP Address&lt;/font&gt;" style="aspect=fixed;html=1;points=[];align=center;image;fontSize=12;image=img/lib/azure2/networking/Public_IP_Addresses.svg;rounded=1;sketch=0;strokeColor=#007fff;fillColor=#FFFFFF;gradientColor=none;gradientDirection=south;fontFamily=Helvetica;fontColor=#999999;" parent="igetMSzc9jm7YL5A2QUc-1" vertex="1">
          <mxGeometry x="176.5" y="300.00000000000006" width="65" height="52" as="geometry" />
        </mxCell>
        <mxCell id="igetMSzc9jm7YL5A2QUc-4" value="&lt;span style=&quot;font-size: 13px;&quot;&gt;Virtual Network&amp;nbsp;&lt;/span&gt;&lt;br style=&quot;font-size: 13px;&quot;&gt;&lt;span style=&quot;font-size: 13px;&quot;&gt;172.16.136.0/22&amp;nbsp;&lt;/span&gt;" style="text;html=1;strokeColor=none;fillColor=none;align=right;verticalAlign=middle;whiteSpace=wrap;rounded=0;sketch=0;fontSize=4;labelPosition=center;verticalLabelPosition=middle;horizontal=1;fontFamily=Helvetica;" parent="igetMSzc9jm7YL5A2QUc-1" vertex="1">
          <mxGeometry x="241.5" y="680" width="766.83" height="50" as="geometry" />
        </mxCell>
        <mxCell id="igetMSzc9jm7YL5A2QUc-5" value="" style="aspect=fixed;html=1;points=[];align=center;image;fontSize=12;image=img/lib/azure2/networking/Virtual_Networks.svg;rounded=1;sketch=0;strokeColor=#007fff;fillColor=#FFFFFF;gradientColor=none;gradientDirection=south;fontFamily=Helvetica;" parent="igetMSzc9jm7YL5A2QUc-1" vertex="1">
          <mxGeometry x="1008.3333333333333" y="690" width="57.548333333333325" height="34.32833333333333" as="geometry" />
        </mxCell>
        <mxCell id="igetMSzc9jm7YL5A2QUc-6" style="vsdxID=113;fillColor=none;gradientColor=none;strokeColor=none;spacingTop=-3;spacingBottom=-3;spacingLeft=-3;spacingRight=-3;labelBackgroundColor=none;rounded=1;html=1;whiteSpace=wrap;" parent="igetMSzc9jm7YL5A2QUc-1" vertex="1">
          <mxGeometry x="810" y="170" width="207" height="237" as="geometry" />
        </mxCell>
        <mxCell id="igetMSzc9jm7YL5A2QUc-7" style="vsdxID=114;fillColor=#f0f0f0;gradientColor=none;shape=stencil(fZPdcoMgEIWfhlsHWDXhspMmL9AncJRUplYzxDSapw9xpfyExCvcPQe+XVgCu3NbnSTh9Dzq4UdeVTO2BD4J56pvpVajWRHYE9gdBy2/9XDpG/w/VUbJ6RKRDXrYQ81ppesvdZMYoxmwTYEJdP4Of48TpzWPqXndIcvFEjigtr5oFLNQbX+zQlDvgxzzE7f5crM6eLDBBPa8AlYBWAsrHAH9MBCd6j1gsc3ybQAdWp6hhTA9iMBDTkZphPmqMIgNkGpcAts5/ssoy3fUzuDKyFnI7VcWl2JR/X5F9C9Z3a0kDIlX4a45hp/Ce5/5cy0QKiDZnwTl+5drFsuI4PCorsMJ8/PxSJkQjiPs7w==);strokeColor=#bfbfbf;spacingTop=-3;spacingBottom=-3;spacingLeft=-3;spacingRight=-3;labelBackgroundColor=none;rounded=1;html=1;whiteSpace=wrap;" parent="igetMSzc9jm7YL5A2QUc-6" vertex="1">
          <mxGeometry width="207" height="237" as="geometry" />
        </mxCell>
        <mxCell id="igetMSzc9jm7YL5A2QUc-8" value="&lt;p style=&quot;align:center;margin-left:0;margin-right:0;margin-top:0px;margin-bottom:0px;text-indent:0;valign:middle;direction:ltr;&quot;&gt;&lt;font style=&quot;font-size:9px;font-family:Arial;color:#000000;direction:ltr;letter-spacing:0px;line-height:100%;opacity:1&quot;&gt;Protected A&lt;br/&gt;&lt;/font&gt;&lt;/p&gt;" style="text;vsdxID=113;fillColor=none;gradientColor=none;strokeColor=none;spacingTop=-3;spacingBottom=-3;spacingLeft=-3;spacingRight=-3;labelBackgroundColor=none;rounded=1;html=1;whiteSpace=wrap;verticalAlign=middle;align=center;;html=1;" parent="igetMSzc9jm7YL5A2QUc-6" vertex="1">
          <mxGeometry x="12.7" y="11.83" width="182.88" height="12.7" as="geometry" />
        </mxCell>
        <mxCell id="igetMSzc9jm7YL5A2QUc-9" style="vsdxID=117;fillColor=none;gradientColor=none;fillOpacity=0;strokeOpacity=0;spacingTop=-3;spacingBottom=-3;spacingLeft=-3;spacingRight=-3;labelBackgroundColor=none;rounded=1;strokeColor=none;html=1;whiteSpace=wrap;" parent="igetMSzc9jm7YL5A2QUc-6" vertex="1">
          <mxGeometry x="96" y="210" width="111" height="27" as="geometry" />
        </mxCell>
        <mxCell id="igetMSzc9jm7YL5A2QUc-10" style="vsdxID=118;fillColor=#ffffff;gradientColor=none;fillOpacity=0;strokeOpacity=0;shape=stencil(hZNNcsMgDIVPw5YRkn+XnTS5QE/giWnN1LUzxGmdnr6ORaYoJSkrkN6DT4AUbY5dc7AK4Tj58d1+uXbqFD0rRDd01rtpmSnaKtq8jt6++fE0tLw+NIsSYY3Ylj3mokZo/P7FfVuOgSZT5pxg58f4eTlxDnlOncMORufFGtmxeH/yrDZSHpa5hrKORsXpGcN2GsPRZxT+mXiJuiqCgGLBejo8LQC9GyLautSmEMTwiLaudCmB4QYQQANKxHs1UcJCyWtLgAsXh6pKZ9kjeuG5VpTpGmUNUZFxVZnEjm+O/sjuYUfvk/YkqH/f3CRw5D+4EsdlkVRQ8rYSrP/85GWy9gx3k+t7brk4f9tjS4j7k7Y/);spacingTop=-3;spacingBottom=-3;spacingLeft=-3;spacingRight=-3;labelBackgroundColor=none;rounded=1;html=1;whiteSpace=wrap;" parent="igetMSzc9jm7YL5A2QUc-9" vertex="1">
          <mxGeometry width="111" height="27" as="geometry" />
        </mxCell>
        <mxCell id="igetMSzc9jm7YL5A2QUc-11" value="&lt;p style=&quot;align:right;margin-left:0;margin-right:0;margin-top:0px;margin-bottom:0px;text-indent:0;valign:middle;direction:ltr;&quot;&gt;&lt;font style=&quot;font-family: Arial; color: rgb(0, 0, 0); direction: ltr; letter-spacing: 0px; line-height: 100%; opacity: 1; font-size: 13px;&quot;&gt;172.16.137.0/24&amp;nbsp;&lt;/font&gt;&lt;/p&gt;" style="text;vsdxID=117;fillColor=none;gradientColor=none;fillOpacity=0;strokeOpacity=0;spacingTop=-3;spacingBottom=-3;spacingLeft=-3;spacingRight=-3;labelBackgroundColor=none;rounded=1;strokeColor=none;html=1;whiteSpace=wrap;verticalAlign=middle;align=right;;html=1;" parent="igetMSzc9jm7YL5A2QUc-9" vertex="1">
          <mxGeometry y="-0.42" width="111.13" height="27.94" as="geometry" />
        </mxCell>
        <mxCell id="igetMSzc9jm7YL5A2QUc-12" value="" style="aspect=fixed;html=1;points=[];align=center;image;fontSize=12;image=img/lib/azure2/networking/Route_Tables.svg;rounded=1;sketch=0;strokeColor=#007fff;fillColor=#FFFFFF;gradientColor=none;gradientDirection=south;fontFamily=Helvetica;" parent="igetMSzc9jm7YL5A2QUc-6" vertex="1">
          <mxGeometry x="4" y="200" width="33.03" height="32" as="geometry" />
        </mxCell>
        <mxCell id="igetMSzc9jm7YL5A2QUc-13" value="" style="group" parent="igetMSzc9jm7YL5A2QUc-1" vertex="1" connectable="0">
          <mxGeometry x="810" y="440" width="207" height="100" as="geometry" />
        </mxCell>
        <mxCell id="igetMSzc9jm7YL5A2QUc-14" style="vsdxID=114;fillColor=#f0f0f0;gradientColor=none;shape=stencil(fZPdcoMgEIWfhlsHWDXhspMmL9AncJRUplYzxDSapw9xpfyExCvcPQe+XVgCu3NbnSTh9Dzq4UdeVTO2BD4J56pvpVajWRHYE9gdBy2/9XDpG/w/VUbJ6RKRDXrYQ81ppesvdZMYoxmwTYEJdP4Of48TpzWPqXndIcvFEjigtr5oFLNQbX+zQlDvgxzzE7f5crM6eLDBBPa8AlYBWAsrHAH9MBCd6j1gsc3ybQAdWp6hhTA9iMBDTkZphPmqMIgNkGpcAts5/ssoy3fUzuDKyFnI7VcWl2JR/X5F9C9Z3a0kDIlX4a45hp/Ce5/5cy0QKiDZnwTl+5drFsuI4PCorsMJ8/PxSJkQjiPs7w==);strokeColor=#bfbfbf;spacingTop=-3;spacingBottom=-3;spacingLeft=-3;spacingRight=-3;labelBackgroundColor=none;rounded=1;html=1;whiteSpace=wrap;opacity=50;textOpacity=50;" parent="igetMSzc9jm7YL5A2QUc-13" vertex="1">
          <mxGeometry width="207" height="100" as="geometry" />
        </mxCell>
        <mxCell id="igetMSzc9jm7YL5A2QUc-15" value="&lt;p style=&quot;align:center;margin-left:0;margin-right:0;margin-top:0px;margin-bottom:0px;text-indent:0;valign:middle;direction:ltr;&quot;&gt;&lt;font style=&quot;font-size:9px;font-family:Arial;color:#000000;direction:ltr;letter-spacing:0px;line-height:100%;opacity:1&quot;&gt;Protected B&lt;br&gt;&lt;/font&gt;&lt;/p&gt;" style="text;vsdxID=113;fillColor=none;gradientColor=none;strokeColor=none;spacingTop=-3;spacingBottom=-3;spacingLeft=-3;spacingRight=-3;labelBackgroundColor=none;rounded=1;html=1;whiteSpace=wrap;verticalAlign=middle;align=center;;html=1;opacity=50;textOpacity=50;" parent="igetMSzc9jm7YL5A2QUc-13" vertex="1">
          <mxGeometry x="12.700000000000045" y="11.829999999999984" width="182.88" height="12.7" as="geometry" />
        </mxCell>
        <mxCell id="igetMSzc9jm7YL5A2QUc-16" value="" style="aspect=fixed;html=1;points=[];align=center;image;fontSize=12;image=img/lib/azure2/networking/Route_Tables.svg;rounded=1;sketch=0;strokeColor=#007fff;fillColor=#FFFFFF;gradientColor=none;gradientDirection=south;fontFamily=Helvetica;opacity=50;textOpacity=50;" parent="igetMSzc9jm7YL5A2QUc-13" vertex="1">
          <mxGeometry x="4" y="64" width="33.03" height="32" as="geometry" />
        </mxCell>
        <mxCell id="igetMSzc9jm7YL5A2QUc-19" value="" style="vsdxID=12;fillColor=#f0f0f0;gradientColor=none;shape=stencil(hZNRcoMgEIZPwysDrJjw2EmTC/QETqSVqdUMMa3p6UtcNIAk9Qn+/Ve+XVgCu3NTnTQR7DzY/lP/mHpoCLwSIUzXaGsGtyKwJ7B7763+sP2lq3F/qpxTsEnRNebwm1uwyh7fzK9GjVHgG4kBzPzqv28njj6OoevsVsUkHNB7vFg089g9b2nBVPCVJcZHMcfLjc8Q0Q9G8MRUFt4AoWE6nr04gtZ0Aa3a0kLGxM9wlaIgEuSY0DmUShAfFQXrFMi1Lccd5CwKk/+wLyl3SW5X/EuFXuIsaXLYNIg9j3iDe8kkZN7F/aJ5ShHf/FWsa4HYAdkOZSifv123mIYEx8e0Lc5YGE+Hykk4kLD/Aw==);strokeColor=#bfbfbf;spacingTop=-3;spacingBottom=-3;spacingLeft=-3;spacingRight=-3;labelBackgroundColor=none;rounded=1;html=1;whiteSpace=wrap;" parent="igetMSzc9jm7YL5A2QUc-1" vertex="1">
          <mxGeometry x="270" y="169" width="206" height="490" as="geometry" />
        </mxCell>
        <mxCell id="sIdN9Mmn7lUllPxHDhFa-2" value="" style="group" parent="igetMSzc9jm7YL5A2QUc-1" vertex="1" connectable="0">
          <mxGeometry x="270" y="170" width="206" height="490" as="geometry" />
        </mxCell>
        <mxCell id="igetMSzc9jm7YL5A2QUc-20" value="&lt;p style=&quot;align:center;margin-left:0;margin-right:0;margin-top:0px;margin-bottom:0px;text-indent:0;valign:middle;direction:ltr;&quot;&gt;&lt;font style=&quot;font-size:9px;font-family:Arial;color:#000000;direction:ltr;letter-spacing:0px;line-height:100%;opacity:1&quot;&gt;External&lt;/font&gt;&lt;/p&gt;" style="text;vsdxID=11;fillColor=none;gradientColor=none;strokeColor=none;spacingTop=-3;spacingBottom=-3;spacingLeft=-3;spacingRight=-3;labelBackgroundColor=none;rounded=1;html=1;whiteSpace=wrap;verticalAlign=middle;align=center;;html=1;" parent="sIdN9Mmn7lUllPxHDhFa-2" vertex="1">
          <mxGeometry x="12.699999999999989" y="17.888656716417895" width="180.98" height="18.57611940298507" as="geometry" />
        </mxCell>
        <mxCell id="igetMSzc9jm7YL5A2QUc-21" value="&lt;span style=&quot;&quot;&gt;&amp;nbsp;172.16.136.0/26&lt;/span&gt;" style="text;html=1;strokeColor=none;fillColor=none;align=left;verticalAlign=middle;whiteSpace=wrap;rounded=0;fontFamily=Helvetica;fontSize=10;" parent="sIdN9Mmn7lUllPxHDhFa-2" vertex="1">
          <mxGeometry y="462.2089552238806" width="90" height="27.791044776119403" as="geometry" />
        </mxCell>
        <mxCell id="igetMSzc9jm7YL5A2QUc-95" value="" style="aspect=fixed;html=1;points=[];align=center;image;fontSize=12;image=img/lib/azure2/networking/Network_Interfaces.svg;strokeWidth=2;rotation=-180;movable=1;resizable=1;rotatable=1;deletable=1;editable=1;connectable=1;direction=east;container=0;" parent="igetMSzc9jm7YL5A2QUc-1" vertex="1">
          <mxGeometry x="439.99999999999994" y="344" width="35.13" height="31" as="geometry" />
        </mxCell>
        <mxCell id="igetMSzc9jm7YL5A2QUc-97" value=".4" style="text;html=1;strokeColor=none;fillColor=none;align=center;verticalAlign=middle;whiteSpace=wrap;rounded=0;fontSize=13;movable=1;resizable=1;rotatable=1;deletable=1;editable=1;connectable=1;direction=east;container=0;" parent="igetMSzc9jm7YL5A2QUc-1" vertex="1">
          <mxGeometry x="445.68" y="374" width="24" height="30" as="geometry" />
        </mxCell>
        <mxCell id="igetMSzc9jm7YL5A2QUc-96" value="" style="aspect=fixed;html=1;points=[];align=center;image;fontSize=12;image=img/lib/azure2/networking/Network_Interfaces.svg;strokeWidth=2;movable=1;resizable=1;rotatable=1;deletable=1;editable=1;connectable=1;direction=east;container=0;" parent="igetMSzc9jm7YL5A2QUc-1" vertex="1">
          <mxGeometry x="561" y="344" width="35.13" height="31" as="geometry" />
        </mxCell>
        <mxCell id="igetMSzc9jm7YL5A2QUc-98" value=".68" style="text;html=1;strokeColor=none;fillColor=none;align=center;verticalAlign=middle;whiteSpace=wrap;rounded=0;fontSize=13;movable=1;resizable=1;rotatable=1;deletable=1;editable=1;connectable=1;direction=east;container=0;" parent="igetMSzc9jm7YL5A2QUc-1" vertex="1">
          <mxGeometry x="567.5699999999999" y="374" width="24" height="30" as="geometry" />
        </mxCell>
        <mxCell id="igetMSzc9jm7YL5A2QUc-69" style="vsdxID=156;edgeStyle=orthogonalEdgeStyle;startArrow=none;endArrow=none;startSize=5;endSize=5;strokeColor=#000000;spacingTop=-3;spacingBottom=-3;spacingLeft=-3;spacingRight=-3;verticalAlign=middle;html=1;labelBackgroundColor=none;rounded=1;curved=1;exitX=0.977;exitY=0.538;exitDx=0;exitDy=0;exitPerimeter=0;" parent="igetMSzc9jm7YL5A2QUc-1" source="sIdN9Mmn7lUllPxHDhFa-4" target="igetMSzc9jm7YL5A2QUc-95" edge="1">
          <mxGeometry relative="1" as="geometry">
            <Array as="points">
              <mxPoint x="240" y="330" />
              <mxPoint x="340" y="330" />
              <mxPoint x="340" y="359" />
            </Array>
            <mxPoint x="150" y="269.5000000000001" as="sourcePoint" />
            <mxPoint x="304" y="347" as="targetPoint" />
          </mxGeometry>
        </mxCell>
        <mxCell id="h8kqR1mlXUTKLsIWHXFd-0" value="" style="shape=image;verticalLabelPosition=bottom;labelBackgroundColor=default;verticalAlign=top;aspect=fixed;imageAspect=0;image=data:image/png,iVBORw0KGgoAAAANSUhEUgAAALQAAAC0CAYAAAA9zQYyAAAAAXNSR0IArs4c6QAAAARnQU1BAACxjwv8YQUAAAAJcEhZcwAAFiUAABYlAUlSJPAAAFumSURBVHhe7Z13vF1Fufe/M2vtekoSIKGFQKiB0KugFBUQ9KrgvSrqtV65vlex0AkiRaQK2AAboIKiCAoqIL0jCIpSpCShhoQSQso5u6818/7xPLP2OoegRE5IOMmTz8reZ++91po185tnfk+ZGdNstXypWMR7Dx6MAec9qfcUoohWknDHXXdz6+138PeHHuTlhQtpt9uAR8SA0bfho5WyUv5N8XhMBijw3mOtoVQqM3GN1dl2y614+x57sN0WmwOQpCmRMQJcwDSazQzQBoPzHmvAWMuDjzzCBRdexH33P0jbpcTFInHBYowBDMZ7vMnffqWslJERL6oy05HeOTrtDkmnTW+lwh677sonPvoRJq25Fi518iMDptlq+WKhCN7jnQcLWMvPf30pF//61ywaGKTcU8UbC95hnANDrh+tVMsrZWmJEY3tBdzORvompVGrMXGtNfn8/36Od+yyC2mSYIzFtJoNXyyVcKkA0xnPOeedx8WX/oZKtYqNI5xzmKzPDJfFfbZSVspISB5zXZ3tDUQ2otVsEVvLV77wf+z3rn1I0xTTbNZ9sVjCOY+JIr7z4x9xya8vpad/DM474daA1Qs6I1Sji+OVgF4pS0MUwF7ee2OwikUhGAZrI9K0g0s7TDvkEN799ndiGq2GL0YFbBRx9S238o1vnk6lWMHj8DiMN2BFPwMK5nCjlbJSlrJkClpALR95gZ8DE1laSZv+YomzTjkNU2/UfblUZtac5/jCYYeysFajEBdwypVDR8muawxkGnqldl4pS1kyTQomaOsMmCLWRjRqg+ywzTZY48EYw6VXXMHcl+ZRLBSVM+tFjHyvbzDI3/JPID0qDu2jxncP9G90qDNagXKOVOvKYykfAXoK4QzMqmjx4FJHuaeXP9/3V2yxUGTO3Be54fbbKFV6cM7hjRBv4w3eZB1hdEtgUbnaNADGSwdWYBv11+NX0q5lIeIx7vqdMUbwisdGMdbGEdddfyMvznuZqBCrEShA9t5nRuGol8CivCjk7mGkHrSTe61A9O+V8sZJxnY90gZe2LTHg3OUikVsvdnkz3/5C4VCQfzMSIMFKrIihU0yuuZlYBMtLQMd3mCclVfp7aq19cwVpN8vLxL4tAFsMBaNxb68YAEvznuJOLJ477KGUTtyxWmngEnlHV4/kD8F1k6HNvnX9fyobl8pb4BokFqUbTi8vHrjsbNnz2bhokVEcRzaMvsB6qFbEcQHw8PocJbjaBmhNuF7Hf4C7fAr6ccbJT4MmHilhEoHvcd4I5Sj3ekovRCNlBk+4YMVQIxRqhGA6ZWbeY81RkL+LiUCrPJr40OQSenHSlnq0tUvRm1D9bipK8QaqwagySUaGSUcSsJXBBFbWAzAIAJSQ7PRJPJQjmOSVgvvNJPFi/PO+zz9WCnLUizeZ6HEgF6v6F+RKAc6bAmX0I+sJWm32X3XXfn6ccdy5imncuCnPkUhkvwWjAx9K0oVvRnE4j1WtZF4OPSbFUzlGNWyxmnAxFrqjTo7bLs1xx1+KLtsuy1TN9qIj3/wg7z/PfvQbNaxNtC0FayylmOxBJqhZFsId44/ryDqJ2ja4Gt2ztFXrfKZT36SUlyg3W7T6XRwzrH7brtTrVQloipEboVTAMurWAKOc9Z7huEVyCjM911jDY1ajXfsthubbbgRaZoSx7EYh8bQbLVJNT1Agk8rEDVbzsWiDRmOV8hiP3zzSuifXsGIvnY7sSHpJIwftwof/sAH1PMRrGiDN4Zrb7iRZruNNTZXPSPX8/PlCjaqfKbD50gcjM5gkB3+wWiXTAsjLh+few3vW60W7333u1l/nXXU+LMkzhFFEX9/8CFuvOUWSpUKqXc6c2fkTMOsPFlHQq5u1KNiUINH/K/h/RIfwfE+ymSFA3RQSh7VepqvYrwAKel0WGv1Cbz3XftkXg8BFLSThF9ccgnNVososjl1ZwQkIyAmlEdBLaOHAjxLjhJ+KCH4f++QXIjhd3/zywoHaNF33de8vWCMpdVsse+ee7LWGhNwqZP8b+eIbcQ1N93A3ffeS7lShTRMSwvZeCODjpDEHjqTiSKJD1gD1r7+w9jMiA3MYzTJCgdo44NXx2CVasgXlnanzaR1JrL/+9+PVw+G8R5rLQvrg/z297/HxJGEXU036OT9yDnuAn9Gp+gPDgzQqA3SqNeo1wep12vyvlajsSRHXV7rtRqtVlNsAvyoox3m5jvv8Meecgq2UJRhF3CExtTMu1H01F29rHraySgcRRG1gUUc+OlP89kDPkKapFhrcS4limMuvepKzjr7bMrVHpl/ifjvfa5qRqKeAt1IOh022mADttlqK1r1BtaGZJPwS/njtd5Tch88hbjAs88/z5333kOxUMgY02iRFQ7QeKURWVRU1hlJOx1WHdfP2WeexVqrjccFzmoscxfM5wuHHcZzc+dSKBZFe2cX7EZVR6KaAqBdmjKmr48vff4LvHOXnYf/7HXJn//2dw468gjG9PfjEjeqxulR9CivTbzSjqBPDRAZS6fZ4r377Mva4yeoZ0M9INZw/U03MWv2bErFknLn7rXQvBc/QkahD6COIuYunM9Jp57C767+IwBpkpAmCS5NcGm6xEen3cY5R6fTzozOkeiEy5OscIBGJzDIIGzwFlqdFmuvuTr77rW3ctgud15Uq3HNDTcSxwXJFzehG3S7RPhrJCQEtrx3FIslnDGcdc7ZXPTrXxPFMUZn4ItLT4zF13IQ3g+JnI0+WeEALS4weSd0wdBs1Njtrbuw5vjxEs62RjLqjOGPN9zI9CeepFguKdjFjyuA6nqfRwojQvMMFoN1HhtH2GKBH/30p5x7wQWkHqyNlMdLph8Y8BYjy16hZw858EbeG3XdaacYbbLCATr4I4KedUnC+FVW5b3vfk/m88V5bGQZqNe56po/EhXjobkeYZ5hLm10ZAhH13gTs9OTOo83lkKpyM8v+RXfOvdcmp02URzh1D+OanYxErXTDTuMjkrd345OWeEALQEUsQmtkVznHbbbnsnrrINLU/1OePLdf/krTz0zi1KpJOv+qYY3IbE8N3qPGEb02hKoEZ3rvccZQ7m3lyuuvJLTvvVtXl64QMsqPDj4rb0U7pWHXHj43UadrHCAFhToKK081LkUEJAnqbx3xnDt9dfTSdMMrF7BtTRhEfzkxgsAjRESgQfvPD39/fz+6qu57PIrMMbqSNE1SkdqpHizygoHaK9eCQM45yhVytx9zz3cefefiQsxhUKBKI658bbbufe+v1GpVIa46ZYmmMnKp3kaIcytoI5sxMDAIDvv8lbe8+59ZSQJWndpF+xNIisEoMUI1DRPDyjTNM4TGUuz4/jGWWfxo4su4vZ77uVHv/gl3/vBDyGyOpzLOTJyL+XpVoHHew/oYpleFiYcrNfYYeutOP7QQ1h7wuqattrV6GH0EK3dXVMlvK4IskIAWrimeCU8wTth8NaTeogKBWqtFhde/EuO/frX+dlFF7JoYIAoigQkRjVnDjRLSzL/sMBUtLO11AcH2GHLLTn+qKMYv9pqJEkyxEsh3F7cjZlLL5e1t6LICgFo0WTBKyEaz+PBWCIbYYwhjmMK1QoUC9m62Hm9Jks7LH1weKUYMjREGBsxUFvEDtttwwnTprHq2LEkSYK1VjyIOcqRGYY5Dd3tICuGjGJA+5yJFBLlg3b1GCydVotmbYBWbZBOqwUenEfznLsgCB4N0YMjJd3ydQEYPtblE6ylWa+x87bbcswRh7PK2LGkieSWhNkzw0EbrpWmafZ+RZJRDGgdsrP3Kh6MsXQ6bTbbaGO+8D//w5f+90A2mTyZTquZLSuVAS5ovNynIyNSPp91GBkBMnddFFGrDbLTNttw/FHTGD92FaEZkYWcZ8MEr41KAHgcx/mbCbD1dyP3DMufjFpAq68g+yuIiSytZpOpU6Zw6gkn8LEPfpADPvABTjjmGNZbeyKdTlsWZAwdwg/dGGnENLRqYRMCKRqowQuY67VBdtlxe4458kjG9ffLHiJRpEtOhACPamR0ooJzWGuoN5vcdc+fMTa49VSLq2tvxJ5hOZRRC+hMP3c9X3gMzoBzKR94z3tYZUw/7U6HdrvN2qtP4N377EOz0SS2NgvAkAPziIpgV0PXgWsY4iimPjjITtttx3GHHcaqY8aQJCk2irDeyxZmoBEi6RhisKZ4PB3n+dFFP+ewY47ll5dfgc2DOuS6jmIaMmoBHSCCAluGdkg6HVZfbTU222xTvPdEUYTVhWNK5XKm1cUzMpS4jKT4jF0IkDEWLAwMLuRtO+7I8UcdxZgxY+gkiU73yhUKgw1TsIyRrRlMhI1izj3vPC777eUUqz388ILz+flvLyOKInBdPi0j0OiUUQxopQ2m69WwxpC2O2y4wQasOX68UmSZuWKs5b6//Y04DmtkB9oyEpwzXKF7tdDJ5L8IayyNWo1ddtqRrx5+GGP7+kiShDiKsjNFIcuzeJ1n6FKH8RLZPOe887j0t7+lVC2DNRDHfP/88/nlFZdj4wiUogAjNmVseZNRC+ghE0qR4dZgSJOELadOJbJW8p7Vm/DywoXMfHwmhWIhMwJNCFoMv/gSSYCivA0g1hAIYIisoTY4wFt33IHjjjySsX39uCQlimK9v5wv8w1FtRtkM0oMEFl+8NOfcPGll1KqVAGTRRHjUoVzf3Qel17xO+KidFY5b3S680YtoLMknQyc4NKUarXCNltvJT9S3633niefeIK5816SZYWVa4xMgwsIvZbJEJZbE0PNWsNgbYDdd9mFrx12OGOqvSRJio9sRn/EmxFmpodooM4qiiJ+8JML+MWlv6bc2yOa24H1FuM81kNcLPD9C87nqhuux6p9kOtmo0pGLaCNV01oVMPZiEa7xYaT12fj9TfI8p6DgfTwjMeoNRrERqpEoDcSIi42g8d4J0D0HrAYE1Or1dl1x504+rBDGdvfT5omWHXNBR3uPeAt3siI4lIn14ws5//8Ii685NeUyhUdWdRzotFQ48DYiNQYzvzu2dz3wINUe3vxLkxFG17eN7eMakCLu0rohjeGJE3YbJMplOJY6IaGizGGBx99FGMDmMO5IwBp9ZZkudMafrfGUh9YxO677MxxRx7BmJ5eklS9GcrrNZoTCiQdVDuqjSznXXgRP/vFxZSqVekgXsYCbzzeyOZPGEPqHDaOaaeO07/zHf50718ol0pdyjKKZNQCmi7jEPGOQhQzZeONlFIIh7RRxIvz5vHY9OkUdEddoRsjRDmMzioxopXxEVhDrTHI7m/dhaMPOYTenh7SNBUQB590ptnVmyGPIJw7jjn/4p/zs19dTFwuYz3gXOaeNOoBEbez7N/unKNQLvLc3Ln85ndXZLbCSkC/ScRr1lrwdLg0pa/aw+R11800X9j6+bHpM3jppZcpxAUNdKhBuMQaWjuAglLeBu4j5bE2oj44yG47v4VjjjiCMb29smRCZJVfd3M5RKfLEbi+jSw/++WvOP+inxNXylnHlPB35tQR15wRvh4mBTvnMHGkPV0620rK8WaR0NAIQNIkYbVxY5m4xpoCczWuDPDY9BmkSg1QD0QA9pJJoAghz0JgKd/IJNX64AB77rYrXz30UHorFVzqlDOHThS0shiDHtkC2OOJ4ogLfvVLzrvwQkrligA1TNwN5dcQukHRHRyY+p33+dFriR9wuZfRC2jCcCraK+kkrDNxIn29PeK7NYbIWrwxPPnU0wJAbX4xqv6N0TijCiHcLEAEMJqbsdvb3sq0gw9hTLUXl6b4SEcRL7tsiTZGxxa5jkMWivz5by7lgosuxJbLAnrnsYGOiNGQoyphwJA/jPNYB5GTQIz3ui/MEj/k8i2jGNBkrWWsJU1SNpy8fgY2dBb0gtogs56fQ0FznyXfwWgwZslEzL2wzp0m52OJbMzgokH23HVXjj3sMHqrVVInKzMZzedQKxbvLahB5x3gJJp50aWX8YMLfkJUKhMZcNrpAn1CXYKq4pVqoWNDVytju9p6ySnV8i+jF9AypmJ0Nf5iIWbyeutl33nVavPmzWPuvLmSnRbcfCFpaAnbW2hGSGYyAiZrqQ0Ostfuu3HkwYfQU6mIAWgt0nW6wLNGO4N6M7wuY3Dxb37DeT/9KXGxhEX2k7RywyE+am+EqsjdtXMZfad8WjwgOg4t4fO9GWT0AlrHXa+5wdVqlUnrrJMZe6KlYc7zLzBQq2vCfBcYARxLIiE5X4hDpGBexDt235WjDz2YvmoXzEPPU6abeTOEFkRxzC+vuIJzf3I+FGM5L4vyhWionBc6os9ojsnoT6Auxnc9IJ7RuRXdsge0GiZ5A8VrdE9aOvd+SUSH06Ch+/r6WWXVVeQ7373eM7Nm0el0MFa8DAop0ZSvqsG0LMpZhSqEr0T7ybSpQfZ+x9s56uCvUC1VcAHM0pcy3i438vK/93gcNo745eVX8IPzzyMqFDHWCvfXu0unlA6kLENpR0YyMg1NeFUEe9XoKN8O9dt9H+o+e+m2w3Iuyx7QGfDCnwIrQ05TIsP4EokXgAigU/r7+iiXShpQETHGMHvOHAWjxXsrizeG77NfDheFvQkLWmpyvhqgVr0Ze++xO0d9+cv0VYQzEzSzejNQDWuMrDXtvcd5MQAvvepKvn/B+dioQGQicGEfdvWABM/FEkjg1eE6odzSedXDErT8q9CZ5V2WPaDVSPPe4FJHu9UGqy63oKF1eP13xHtPbAu8NHcuL89fIIaYlRkdLw8M8Lf776dcDlEzuWcwDF/9jkF1dZcbELpgMMYyODjIXu94O9MOOYSekrjmAphFw6r2M91rBTDHccylV/6B7/3g+5g4lp7unHSz4D4O/y8hoE24r45ARsvtAwXLOoyUKU9n5FmHX3H5k+UC0MYY2q0mW22+BdtstTWDtRomitSNKtpDQN89/pWIXldAxxELFi3inB/9mJlPP8PLCxfy6IwZfPOcc5n13HMUCgUcKZL4IA2J+qkXL8Hw8+DDSv4GayLqtTr77rkn0770JcrFIqmXnBGrI4KHbPa59xqiduBT8WZcfvUfOffH50FU0GT+oDHlPGP03vLVEknoSPJOc0q8x+Gx3pN02gp7HQU8cuPgiXkN9b6sZdmvD63h50WLFvKB976Pz37iU0w79jgenP4I1Z4evK5cJEB47eXIg97puZ12m7H9/fRWqwwMLGLRYJ1CoaDX7p5rTKYKFyte6YxoLvnM2IhGrcbeb9+dow4+hEqx+AoD0KA3CtpQIIZPHVEc8fvrr+Os734XolgXZHRYG2InodtoGYaV+bWIw2GdxVkHeKyzEFka9Qbbb7UFY8eO4/obb6Ta359RM4s8qLce48zyoAL/qSwXxfOak9xuNVltTB9fP/oott5sKrVaHRtFmWJYEg2dl9DuxWKRgVqNZ194gVqrTbFU7PLZIb/+59cXcAVD0GJsRK02wL57vZOjvnIwlUKB1KW6VFcXeZlWDq9ecpOjOOJ3117LWeecjYsjrI10S4wwQMn9CJ1I+fM/L+UrRRQUSo9sRiHSNGFM3ximHXwI++65F/XBAYiCN0iMSMLrci0eG8CxpCAZMVHK4YHISnBjzdUncOxRR7HVlCk0FNTD1WUG7NdQbuORpWk9FOMClUKZ2Mq6G5JXLKATr4Dqwex23foJIA63NOo7btZqvHvPPTnsoC9SKRYlnG3FuBRQhlwLuUYYvp1uFXf1TTfx3XPPxSltcaFM6sXI1LGWyWfeEfnqNR/BC2I0v0N6C9Ya0nabaqnIkQd/hf3/4z/o1OqAx2g6bSZe64BcnQz9xTIT74XaLVsJ6tEbnJf1izudNmuNX40Tjz6azaduxmC99grfrTEhWDAU6IsV/V291WKwVqPRquvmKgFo6tEyQesOOVnxFObwCTyMAmFgcIB999qTo770ZaqFIqlzEMl0J4YwF7mJEUyQqgF41Q03cPq3v0MCxDbSoI7w2K6RKrcdiUMeM/ikoy6wI+lwRWs57KCD+PiHDqDdaOKMl/1d8PI80hukhFr3r6EF3hAxxmOtasUl4adLQzwCKJClr5Kkw+rjV+PYI45gq802o96og65mZHxXQwfvx3AgBi1mlEOnacLuu+zM5z77KXbYbls6nY6eo8NqRiGG1YMaRN47TbA3+htLvV5nv3334dAvfpGigtlYmWkSLhWYslxbPBnBm/HHm27irHPOJjUeG8eSuhpuK31c9Lkaha/3kKcMGlvC6xJCl1IaY3BeRrLPffpT/O+nP41P2nSSFGMjqUjnIXg/gi3Rra1lKt577D/m3Eu5UMVJsu0yEKkO8cVKGYyxRFFMmqZMnDCBb0ybxtRNplAbFE0tjdM9WzrkUFCLphPN2m41+dD79+Oko6fx6f/6MKceexz/9f796bTbMvyG6/lXNo83Air5A1Ba0KjV2HfPPTnsoIOoFgo4L1lzYR19cYVpXjJynnHimoyiiBtvvY0zv/NdOs5TiGJIQ7K9lMGg3hb1OOSQ+O8fhICK+pyzJ/NaasRmAXya8skPfYiDDjwQA9muYFlVaKXJZb18uIzFeY8dbC/EGtHSy1S08aDLzay1pEmHCautxtenTWPbTadSr9VBKx2t0MBP84OMQRc0b7fZZPL6fOZjH5PNgVotynHMp//7o6y91lq0253u6KQjRF5kmA4NLksNDNYW8b5378uRX/oShTjONrIH+S1qbRuC71ZA6pyjUChy/S23cuq3v0XiPUUb41NBnPV5OhDej+QhPma5tiyFYL3BOqVTWvdSH4YkSfnge9/P0QcfTCm2tDotiCLxgmnaqtDwXMUvQzHGY4MhtuwKFcCU+0QNNLykXaZpwloTxnPcUUey+ZRNqdfrRFam9xttBDIPQugQkmXXbreZtO46VMslWReuEMuGPHFEqVySjYDyN1fw5Q2foNWsMTTrdd677z4c8vn/oxTJVC4xAIfVn+92MB8MwELMrX+6m2+eczZN47GlIs4YSbqPI+He4f3SOLLrW3wkLjsiA5HFWymsMVrviI2QJAnv2mMPjjn8CMb09dFuNaXupXIyZUKggej7TOW8kWKw+NyQuzyJlsvo2shpkrLmhPGceMxX2WqTKdTqg1ib935IBRqtZBM4NhL69t7LpFg1EL0mLRkN/3ovRmbeyyHKNXxuqA0M8v599uHwgw6iGCnNyMLZAgLxlIRGDu49j7UR19x4E8eedCILFi0k6XSo12u0GnWajTrNRpNmo7F0j2Zd39f1fZ1ms0G9UafTbkktejH+sALuKIpIkoTd3vIWvj7taFYfO452s6meJwE1BI4unWFZijnjVyf56y65n4ZvEWkew7IIrAwMDvDevd/FMYccIlOFTFdTYi3Gp6TOEUcF5jz/Asd+85v845GHqVYqQ/IzApk2alwuGhjkXW/fg69Pm4ZPdKa3NbQ7HT7z5S/z1NPP6B4qsgGlPGsXjGHkqtcb7Pcf7+GQ//f/KNpIVii1hkjrxqOMJd+/THcInz1nNt+/4HwW1RsUC0XZs0W/E8NMKMHSrOrsuTQ/wyKz4euNGttN3ZzPfupT3brMazmdaR4XYh6dPpMTzziDJ2Y9Q09PlTRNQTl5eOhX1MUbJM6nmDMvOclf+6vlE9AKLdC68V7mAUZRxAsvzeOrJ57Ig9MfpdrbC4lEFPMEIooiFi0aYJ937MHXj5qGS1KwMpS2FNBP66ZAzqU6YHnV2BZvJFWp0ajz/n325ZCDDqKgC9TYLJ85x+HDnUOfCKXXKKU3YKM463DhfJ97/0ZIVu5c/VqtL6FvQeQXAaCpd8RRxNPPPssJp53KwzNn0lvpwTnwSNpAphJ0xHojxfl0OfBD/1MJgzhZqqS1EWmasvpqq/L1o49my02n0gjejxwosqpULiwfKuXoOtOyJvXKHbsuFI/F0qo3eM8++3DIF75AIbi1dAHE4Ws051EimWpKV7ynWCxSKhQpWEshioijaMhrUV/fiCPcK9y7EEWy/p12zqDMwhIQBnmuyFo6acK6Eydy0rHHsu0WW1Kv1XQf8vDwiO8k3y/eQFE/zDK6+78UhV3gtuqFsNbSTjustfoETjjyKLbYeAr1RgMTeB3KBZE6zjRF8B4M6Sry/EZGYwGm8ulOq8XkdSbx+U9/hmIcy/7fOhQHIAcwB8Mo9Cqjflrv1c8b3i/HR6g374UCSaadPpfCJDIC6jXHT+CkY47hrW95C4P1QbyVyjZoZ1bq8UZL2Gh3+OfLiXRhBwFoUsFxJJp6rdXFUJy68SbUBwZyRlr3mbJRtKtE9AvR/F5QL6BWo8gYQ5J02P/972OV/v5sGwjtUxmwRePr3/nrh86R6wBhhFjcEb7PNORSOPL3Weyh5TRG692EB5EOqm+zuh/X38+xRx7BXm/fnVajjs1ALJ1iWaDKvqbQ8XIiBg1WaAVbY0nTlDXGr8bxRx3F9ttsQ6vVHsrdPEN0RXjnVV0b1SaiWbQjeJnlUqlU2HTTTfDeY40EdKTt1fA0XR3/ajIM4696hO+XpoR6CKRL7h1eX/FjeQnPa5Ba0vqxRiYe95RLHHv4Ebxrj3dQb9Zl5o+Cf5lp6GVx439HQkmDrxOt8CTpMHGN1Zk8aRKJuuKyc4zyYzmxCx4N5AhT6LJp48X7gDE452l3Ej1VaYlqH5/3e+c6ynDxuREiXHpxB7nXpXV4LyiTsLU+uxeYZ6NYKLf+LWUKz9z9UC4p7siX5r7ESy++IFmC+Wvk3i9tCZRJllAb/u1yJHkQe6P+ZQzOykMYb4jiAt/60Y/4zZVXUq2UJYzvBfTG+G6ORLD7QMLrJhoG5vBGgjKNZov7738AEziyhrO1LwzRa0YKKaLXCZWMUY6qM66FyEvvkr/D6BA64NI6wmSBUA596FC2HDCyUc0MfSz5razkGscxM595hiNPOJ6/PvQPyqWSTOJVeSNxFdrIisEy/OvlR7oMWsGsHdCkEolLDXzvvB9z6W8up1wqZ7VvTNflmO0IpV8a5XdxJF7kofiUBvbOUygWuea665m/cBFxHGV7gYcQMkZ+ri/dFlTQGO2AWVhZttjCu3A4WVnfOXzq5HUpHji5D85Bmrun97ILQA4Y3VFNOjLq2vNG6jMuxDw883GOO/EbzHzySao9vZoPFGpjCPFb6uKVAlqzPKMZ1cxBj2pZvZPcBG8M51xwPhdfdhmVnh5QdxzhAb1wvrBJpXBfaRRrLcViIaidoFQ1PdLgvaNULDBr9mzO/9nPcF68K92OERo+U8hDVFnwcmCkTEbvaSMrr8OPV/t8RI9I7yPbcGTvdZ6lzwHDZ96OodQqTUQzP/DwIxzz9RN4evazlHt6ZBJweHgF9RuJLK/bi5izLjvZX/2Lv9NajgMrYgzq0BxAbeCcH5/HLy+/nFKlImXUoRNvxNgxlnqjzvZbbc23TzkZK+sZqRFo+Moxx3DPffdRqVZIvZPkIHTlIgV+hKHTaPCB972fgz53oG4kr2F0FbURpVByere8CuZ581/mhblzKZdDZDM0vFaDUcqzFKtaOnNgOx5nNDU1cfT29LD2GmvgQ5Q2p5lDnTsnaa933Xcfp591FnMXzKdUKktyll7Xq5Yf9nhLXZxzRLHFfOuyk/3VP/87TZY/QCuCdayT9ECjFXzOT3/KJZdeSqnSq77SMPfQZq49Yy3NZpMpG2zIOWd8k3KxqHxagiJfPeUUbrztdnqqPSQ+wSAWujEpYeqrRfh2s1bjg/vvx0Gf/SyxlalVJrIC3pBV6eQE7+S58oB+Ye6LfP3U05j+5JMSrk+DRuvmO78xgM5RIOPFVhio8ba3vIWvH320djb53ioundKSOI65489/5uSzzmBRvU6pWM5C5UafQy7c7QxL83Hy4r3XfZcEBculGHRI97osFgas5dzzL+CXl11GqdqjraRaGzECRVvKQ9ooYmBggEarhdeFD713eKCnt0+4Zc4VF1CVtQ3SQOWeKr++4gq+88MfkehsFZ9KknxIhHJBMSlA0YXLnfesMWF1DjvkECZMmMAL8+Yx2OmwqNlioFFnsNGkVm8y2GgyWF+KR6PBYL3FYL3BQKPBokaLWkPK0Gp38AEY6s4MtAMF87U338yJp53OYKNFsdQFM0YNTf29UJasGd8wMUaz7d6wbvQaJVSM1yEMJ5rZ4TnnvPO4+PLLqVQq+olTX7KVSamIn1o6goSpBwcHpcG8hzTNhtV6q6nPriHe4OYwYnlaNUADG6xUe/jNlX/gOz/4Pu1U8ga88mipRymwN2hmn5xp1ZBaf+JETvnasWyy4YY0W03iQkwURUTWEkW2+7q0Dr1+nP1tKBiLiWWZMemDoo2DpeC9J4pjfnftNZz+3e/QSDsUCkV8InUi1ackLtgp2qmXBay6ywQtR2JCbRiDSbVyI8P3f3IBv7z0MirlKmhlQ3CliSYJA52cboiM7Kz61FNPY60ljgrEhSJPzJrF3/9+f7Y3iZIDbaKQDK8qFxkhvPdUq1V+e8UVfPf7PyBRzR5W/ZehPIwQgmyvf1udVrbuxLU57sgj2WjtdWjWG/jI4nSUkXEjG3Dk3iN4+OHXpKuBwz29l2fyTuyWKIr49e/+wFnfO1uyHeNY6FJwNyKjotR6F8Shj7/R0t3aejkS74W3hxnZxlq+9+Mf84vLfkOpp0d0hxcAKu6H8c9AVUTbJnjOveDH3Hz7HTwzZw633HUXJ5x+GgsWLCCOosxP3SUa0kEynzEoORY+Wenp4/Kr/sAZ55xD4mQricDNPeqq05A4RhrcEHKLO2wwaRInHnMM602cSL3RyLLcMuM3dIo8OkbgMHqtwNnlQ/kyiyIai9NBKooifnbxrzj7Rz/ExAVMFCtFC0uXyTWzzpAD8ZDmeAPFZtpgWUl2/y4XNmqIgPiZv3/BBfz6t5dTrlRBYnQyrCuE5KTQcnKFoKu998SFAk888wzHn34aXzjyMI4/7VRmPPU0xVIR79W3rFQldPDgCelSEfkUDM47yj29/O6qq/nW939AO5HopFdqhLq6srB6znUXRTFpkrLepHU44atHs/5aa9NsNCStNNOQSmUUMQLykRCBnEHZUTaiaeeFrHN74IcXXsSPLvoZUbEgGXVBiXiZYBYaIRiZQ1tg2cgy19DBMvbITBIUhFb9tude8BN+fulllMo9SgEcnhQC1X2V8uf968Z5SoUiJo6YPzCAMRGVuKT9R++Zgah7Dfnca+qqUhJVb855KtUql1/5B84691ydvWJUg+nYobQlzIbxCggbGZKkzUbrrsuJRx/NWquvQb3RwGpiVQB1OCfw0tcvAjmvAM7KpMlI3nsiXVb47B/9mJ9e/AuiamVIp7LeyBZzuUSx7ii27GWZ50Nn/MtrVevQmxrD2eefzyW/+Q2ValV8w7KptVB/Q5ab8C/FBM1jKRakgZxxknDkyYIHouRV5wdkqz8cA0bXvpMPRNtVenr5/R//yDfPPZdG0sFai090SzU8LhhYWefxgGjqJEnYcPJkvnHMV1l3jdVpNurYsFSDduwuDRkpTa1a1kXC8Y0hci7bpqPRaXP62d/jkisup1KtEkll6HglBfPisM/JSHW41y/LXkNnETUNDSP+3R9ecAG/uPRSypWKNEIYwoO2QzXEv3iAAAyUZzfrddJ2m7TdlLlxqpFQDA/HTIg2Ci+WI/Qi7yWEXempcsWVf+Db555LxyU5Tq2aFi1IPn3Td+frbbL++hyvmrrVaMq6dnr/QKlGRlNLhxLaIGXwRrxIhWKRZqfDqWd9i9//8Y+Uq1UZKZysReJ1hBLNHg59ltdbrBGUaJ8Pv/P4Gfc/T0JKmLsc+J5BOdJSLLH3EEWWVrPJplOmsOtbduacH/+YX/32N7qhJOo3Vt6mw5y0rZR28TWa565q0CUJu++yC5844ADe9padGRysMfvZ2cQF4a9GtbVV8IFQjvC5tH44VLyUoVQq8Y9//IMXX3qJHXfaiaIVYzPUYwCm1dEgzE421uKSDhPGj2fzzTfnL3/9K/MXLqRQKuZ6V5eyvC5Qq4tROqk8sMGTOscqY8dy3wMPcO0N19PT14fTe8v9wqFUKrNRAgdfPkBtrCHa94B3Hj99GQIarbROp8P6k9fn8Sef4qJf/ZJitSc39Acfp5SlW8kMBVdOAoDAYGxEs1HnHbvtznFHHcnGkyez4eTJ7LzTjtz/0EM8//wLxMWC6i45JxtmVQsZVBkpEKRXBeNIcF0oFnn40UeZN38BO2yzLYU4wqdhNSWjVDNcS2Au9Mng0pTVV1uNzTbbjL/+9W8sGhggLhRk1Mo9okEK8u+BO9eehsyzEccxL700j8effIJiTwV12MjjhdOy0SX8rWBfjjT0cgJoQUMcx7zw4ov87W9/xxZ1VVBdRlYKJYB+rRL0tgkRaQ9f+N8DmbTmmnTaHdLE0VOtYG3ErXfcSaEka3QYD94acf/k8jXyEvzTBr0RXS5fLJX4x8MPM3feS7xlhx2J40i8HzpFSU4MINDrGyPusjRljfHj2XTTTfnzPfewqDYoy/3meNAQTe3/NeUaItqWQhtCu8r53sieLvJH6HAyMhkvZQxFX17FWCO76i5LkUFPaqreaMpiKEaGd6v82vuw2Mtrl1Dv2RDrPUlHooXWWqJYMufWmbg2pbJuVRE0cUYxhl1URZiHZqKFFtbfO+ep9vRw9fXXcfp3vkOj3cFGNlsdSTpB8JwomPSaIfiyxZRNOP7oaay66qq0Wi1df0TvHXzcSwpmVHcgdkjI6/bqkZF2AJwossCZhaYEcA+/4PIny9woDJrAGEMUWYwm+hi8LLKtQ90SV6Y+mEE4er3VYsaTT+mXql6NYdWxqzC2r5/EpRiv04fQfOBXATTkrm+8BBqMz6iIc45KtZerrr+Ob579PZqdjhiKqdPr6m/VsyLPqxpGDcWtNtuM4484nNXGjqXdamHCLl1qIKPgDsdrkqCVA1Pw0tkzqqWGLwp6Nb0z5bCkTbAsZNkDWjWN+I21MkNyjBHgGZaMboA2jjY6HuIoZvr0GdJBrPBW4z3jxo1ltVVWIU0TbUxtbT+Uu+bFIECQ15zGzIn3jp7eXq69/jpOPessGkmbKIpkvxUTAjZqXIVOq59ZXf5sm6mbc+y0aYzt76fTamPjOGP5WTkCt/13JADbqH2iI074W8rVrYZ/8y5vqCzzSGHQWOILHnoErurlvyWUYPJItltciJj17LPUGo0MgM57KuUSa625Ji5E+zRrzPwTDS3dTsxOj1Hs55tbKJNo6h6uu+kmTvvOt6m1mkS6UA1eNHSmZcMV1fdsjCVJ2mw7dSrHHXUE48aMod1qy7K2WTm6lOzflXCm9vswcMjn+fe53y7PsuwDK6gmkJchh3yoYHkd6sHjiaKYefPnMeeFF3KAlo1z1l1nHe042qhoC7/KPTPNmCtzVs5s+JYPnYdyby/X3Hgzp3372zQ7bfEzaworCiICC9IInDGGyMqSwttvuRXHHnEE/dUKSXsYpw6vGuWUztH9Lk9LFneER8w0caj/4e9DvSznsswpxxsiHqIoZtHAAE899ZRqNNWzBjbeeCNJFc04pABzSTVS4KLByBWrSxL+e3p6uf6WWzj5rLOoNTUhyeU4dKAgOlKhhqk1Yihuv9WWHDftKMb09oqmNjLroQvILm3IA1DoSKARrzxGk3gv0YpRKaGthDoIcJIkYcYTT+QAJEbgxhtuyPjVVqOTyKyVoKeXuLlznFiCFgAG7x3OpVR7erj+5pv45ne/S63VwkYWl4ihmCXIq0stOEGMkb1nOkmHHbfehqMPP4y+nippIrvfghR3iObV4gQNjRqS4SCnuUeLeKWJoxbQfgiYZQ6fiSIemTFD/NJGAO2cY/VVV2GzKVNotjpgXjmcv1YxwX/rkUR5GxYwlMp2zlHt7eeam27i5DPPoN5uEen2bepZVA6r3h11rRlriXVHg5233Y5jDj+UaqlEu92RlVkNWScECNycVxiq6DPnPl/Sh1zOZdQCOgBDRm/hzMVikccff5xZc2ZLyFnnynnv2WLqVA1H56+yZK3tUTCB0gYhICbnBXHO0dvTy8233sopZ5zJYLNOFFmJKKpKFjCrlyfkuqj/PEkSdtl+B44+4gj6KxXSToLXSCRKdRZLKTTFIEk6GTWBbh94s4vRWUHLPLCy1ER9rEIdBBRxocC8+fN54KF/ZOAL4/rmm0yhr6dHFkHP6MaStbbQ1cBl9e+hvwBkSeBKbx/X33IzJ3/rW9SbLaIokqUAdGaMlE+vQyDaklKbJh123WEHjjr0EMqFAklHsvxgGPXIaWgbWRr1OhPXXIMPfuA/abfbOoJlP3lTS1AarxLcHQUiWNb28pkHwFjLgw8/LHxLwYf3bLjeeqy9xhq0k5acZ/g3zMJXSqAOIVMQZwAZHXr6+rnpttv5xhkyizq2YiiKq6zbEfVCYrRayU1Jk5TddtqJaYcdSm+xSNIWQ9EspsjWWNrNFquNHctXDz2cHbfehmarpZmGw3/95hSfcehR8kCvJtJhlcN6QxwXmDHzcRY1Gpn7yznJ69h6yy1ptdsCGp/zV70OEdqjIDXiuRBaLTNcenp7uen2Wzn1rLMYbDSwsZVJvKiBGELUXsPT3oOxmMiQJh3evvPOHPaVL1MqlWRdv2EqyhhLu91hzNgxHDvtq0zdeCOag4OSt+2HU6w3rwQKtVxOkh1pCf4G7x1xocCsOXN48ulZ+CwBX4C3265vo7dckRA1S54/slgJvBj1fBhN/tcRwDlHT28fN912O1//5ukMNBtEcYRLHHjNtdCQN8huW1lIOopI0oR3vm1Xjjr4YIrWkCYJ6Ox3ayPanRarjOnn+GnT2H7LzXHOYaLRo5mHy6g1CgWl8mJCkhMeG0cMDta4/wFdhBFJCgLYbOON2WSDDTJ+ORLLpBnU0REoQy5BPhTSOU9PXy+3/elOTjr9mywaHBRQ67xKCYkHayC8F+0blhR+51vfypFf+QqluECaJBTimHazySr9/XztyCPZfvPNsy3sJPFIRq3RJqOeQxtUy8kqXeItiCLuufdesYoB71JcklIuFJgwfny2O1aWSfc6RNmFeD+yoImEyzNC5BXUvb3cescdnHTGGQxq8MV5cf15J51PaIeWLfBGK2s177X77hz6pS9RspbGwACrjhvLCdOOZvsttyDp6ILtOlqMRjCDznkclaKABs0X0T+995TKJR6dMZ1Hp8+UhV6imKgQ8/xL85g+cybFYnGIh+D1KOqsGEY8JyZXruw3BtXUUO3r47a77ub4005j4eAAkY1IU6EaXc4rdCjzUhiDsYY0SXnXHrtz8EEHMWnNNTj68MPYZvPNSZMEG+kSabzy/qNJoncf8M7jH/v7skzwX0oS2k4eSOmFEf4ZGdqdhBmPz6B/3DgSPHPmPMd3f/BDHpk5k2KpJFazXmZpaDPzCn+xFNg5KJXLPP7EEzz97DPssP2OVHWDUGkTLytEGeFTStGza3rv2XD9Ddhj993ZaL3JpGFjUGPwTujVrNlzuPamm2Q7u1FkGHo85nu/P9n//oJluFjjUhaf08wZQhGkd9ptbGTp7+3FtRMW1RtEpSJW17uTn0m+cOjW4XqvV/IjgPwtdwi1bSPL4OAi3rrTThx/5JH09/SQpqJpQTwlQmWkxaRkwRcN1hrStKOeHCvhd++Jo4g777mXg792DP19fZrOOqQob1p5E2zr9vpliJbVBCCQVi+VSlgbMTBQo95uUygVdT2QOAcOQU4wEEfCUASlCYF/aOQuUA9jPc6l9Pb28ac//5kTTjud+YsGiKIY1xHwetTYzLqYPFfQ2M45fQ71gedHmVEC4MXJqAc0ufYzJs9DZakBoxtO2ijCe0erUadeH8S7VDPaBD75vO2RkHyZxEgLiUkhwqcuvb4+7vzz3Xzj9G+ycHCQqBDjUulUgRYZTYQKlMOooRjojFdDaWRKvjzLKM62W5wITBSYwrhksDZI9lqass0WW7DbLjvTWynTbjZAXXs+81KMjIYOV/FeO0yY0NCFuoA6FU19171/5oRTT+XlRYvE+xHWy9CoYljfJIA6f2SDUrj5KBXvQ7bdaH9SlQwuweCFbLZ1f08PRx58KGd+4xuccuyxnHTssUyauDZpR3y3oPnSQy/5b8srNbR8GOhB0LrodtCV3j7+dO+9nHj6N3l5oYBaAjQC6qCNhWIMNziH3nO0ijEWiwRZh383aiXwTuMl4BIZQ7vR5P3veQ/7vH13WSAmabPVZpvxqf/+OKT6W43VLW2REHf3VQYU4dQ9vX3c/Zd7Of6003hu3jz9TvcayMKab0Qpl0+xxmATJ1GxkRpKl3cROql5xgpsj2f9yZNxzuHSFIslTR1v2X571pu0DolG2AhwWYpV1Q3CBHoknQnN0uvp7+e2P93BH666Stfm8/mxZwXQw68u3nvsxN4pdNIWNlsmZ3SLUTwKblIJAxvDw489KoZUZGRtEDz91Sr77r0XrU4zS/oxWaeQhKORFhkNJH9D6EPO02IMAwsX8p693sUH3vteycsIXGUplOXNJsYY7OrVdUlcVwONevHq6c0ZUKVSidtuv4MXX54nu6Hqd8579t5zT9Zfdz06zZZw0qDVdRmDkRbxL4uL0XonRqs1YD3NwUH22+fdHH3oIaw2bhx4XStPgywrhRWPcohBqMaUar9CQfYjvO6mm6RjK+hdkrJqfz97v/3tdDTfWDwKXiyPsPTuCIpcT8cRL+X1xtNuNjhg/w9w+Je+SE+5TJrIRIRXdKyRLtCbTGzwta4wGjpw09zjei8LLf7+qquZu2ABVqdnyWJFnnfvtRdrrD6BTkdnW4cR3mvEjpEDkhH1D0aWFcY5XLPJZz/+Sb70/z5HBJLbEXY00gJIzrW6I4e57RZ3iIxQoZcjWTGIc15CY+ZGJO8chWKJWXPmcP1NN2cjltE9rdcYP57999ufVruTC0574dHqXhupJC8J3Ei+RqvTAec46MDP8emPfISk3ck2uRwC3jBt6zUe4dlDwGU0yYoH6KCctS2NOILxeKJCgauuvZYFtZossOilhrz3/Mfee7HhupNotds6KVWrzovbM/OavV7xHoPFuZT+3irTDj+cD++3HwBxsUBckC3Yoki2NLb2tW2rHEURhUIBay2FUjnrsKNNSZub77zDH3vKKdhCUS3s0ZWc9K9EGlY0stU9DT9/4Gf55H99EJck+NhCKtub/eHaaznlrLMo9fbpBkHdjSfFCzH86ksuoTydTpsNN5jMW3fciWatIUuIhU4YEpOWUCM57ykWijw9eza33HknxWJRefrwX755ZQUEdGhBn0XYvA7B1lra7RZrjJ/AOWecwfhx43Q7ZjEUnYGjjz+BO+69h1K1qht4SoDGhQkEr1Nc0PbGkKQd2s2WpPUaQ6rGrM0BeklbxntZFq1YKsloMBK9cDmSkWiDN5mEBuyGhcOrc45iscys2XO48vrr5XNNYPLeE1vLJz/+3/T3VHGpzt3zXcNsJETyOYTrxrZIb88Yqj19VCq9VKv9VKt9VKp9VPWoLNHRS7Wnn1KprDx69PmvV0BAL14CML1zFEtlfvuH3/PUnNmyXJeXbSXSNGXqRhvxsQ99mKShmjNz442MBJeiCf3ESR6z9x7jHCZ1snXcv3ukuvJpuNcok5WAVgla2ntPMY558aW5XHLppUJJhCJjMKTO8eEPfICdd9qJZqMpG1KOoKbz6DIHGJxxeCMz0J2RHVy9LjEmGynr36/58DgrrxK7Geq+HA2yEtAqIdQMsgZdT6WHG265jfsffkS2T04d6MaaxThm7z33FByLQh05YOSAJh6YboK+fC6jgpB3iSguyWHC+xHshMuTrAR0kIBKIy48Yy2DjQbn/fRnNFotmR7vPXhHmqb09fbKrquayzxS0s3l0PeaFTj079yRw/aSHOLrHn73N7+sBLSK5EMISryB1DnKPVX+9sDf+f011xJFEXins8QjHnnsUZJOB1SD5gM1r0ekb2hYftgh2nvYoX6bJT2k24w+WQnoIF61tA9/CEajUokLL76Ya268EWcttXab319zDb/7w5UUdXNMYSshj1mPAJ78+9dwkA+l+xCwkYuKe9HnChxI0pIf4dzRJiugH/rVxOG9laW6nIzL3suusi7tEAGbbTaVVrvFo9OnY6wliuIhkyOE2+of4WOTQ+q/VY96Xnad3DX/ncuNclmpoVUCD5bXrvbz3mOjGB/F/OX+B3jo0elEpRI2junukqLXEKWK97LIqNO/w7zFoF//6RF+Z4QGDV/dP2T4LY1Mv9EgKwGtErSrQVYhwshyAsZ2+Wu1WqFSkQgbGmXreiLknNAZPGq1ocMe8r1/hVU37FDgSk/wmGx5XY/3uv5GxmtCwtHwp1lxZSWgg5gQchavRbbAo9fZI97jXapL3SrwFUkZJ/UKbjyxk51wDbJ3nvWyNG7Y3FNeX3ngLdYFK1Cax3qwGKKwMai67kKHypb4WikrAZ2JVwx5JHkfFKpySEq/HkFjIpTkFUe4gvdyrrF4Gzb8tLLZz3A/mjGyX4q18hpF+EjO81Z80Kkanvjh9w4GaU5jh9vr78MzZjxllPaBlYAOouFmcc4G+iFQRiEaECEaOYA9fwlDZKxED2PJjku8o9Pp0Gy0qNdr1GoLGRxcRKMxSKMxSLNZo9moyd/1Aer1RdQGF1GrLaTZqNFstWgnHdmuwsgGQlYXkdFxoovO4FhWjW0Uy8LLc0j24pocjVxlpZcjiFcg+JxHIXjxwh/Z/wEI3QQn5z1pJyFJU9mMCEe5WKRaqTKmt5dVVlmVVcb009vbQ0+1h3K5TLFUJLIyIdc5T7vTod1q0Ww2qTfqDAwOsmDhIuYtWECtXqfWqMvOV8jKSFEUERcidDUKdeuJeC+NacJDZM+iJc896miSlYBWCZD1qOYyQLamXU4L2qAVDalLaXfauDShXCyx6rhxrLnWGkxca23WW3tt1lxzTdZaY03GjRtLT7WHSrE47K7/XFLvFdxN5r38Ms+/+AJznn+eWbNnM3vOHOY8/zzzXp5Po9XCWEOhWCC2kYw2XpY6w2jOduiMOXAb6Gr1USIrAR1EkDxEBxvNmcaQzSVM05ROuwPe09fbx3rrrM0Wm2/OFlOnMnndSUxYZRXKxdLwq4NqTdGi3fv8M7HdOPUrpNnp8NL8+Tz9zDM8/OhjPPDQQzz59FMsWLgI5x1xoUgUF8Rg1H0QMyMBcp20+/oqt3pTyUpAq3jvdaHE7vQqgxO3nYd2p0PSaTO2v5/NpmzCdltvzZabb85GkyZTKecA7GWRRZdLnh/+uqTi1MsCcn2xH0UTB+m0E2bNfpaHHn2Evz7wAH//x0O8MPdFrIkoFUuaButJvRhO1nic7ps7mmTUAnq4HhIgiIci+1z8dGIkqYUsA7QYdt452s0mNo5Yb+2JvGWH7dlt113ZdKMNiXML86Rp2lV2YW26YVAxwUOxJJKbHia+k+B/cUIpkAkIADaKMnx7YNZzc7jr7j9z+913M336TAbrdQqlAlGxgHd5F0hOQ2dnZ7UmPNujnSd8t/zKqAX0YsUL4OSt+gdyQDd4nYXiaTYalAoR22yxFXu9853stN22rDp2rJzrvKy6lPmCNesuV00Wk0USLWESwBLWoxp6xsi1wjWHw8qoFvea+2F0OV2ARrvNw488yo233srtf7qTefMXEJeKFAoF3SI5HF168+aA7uJl1AJ6uP4RxAZrSF1vQfMEUAONZpNyqch2W2/De/bem1122IFSHAPgklSAFfzImV4LGj6vhfOQUO26xNUowZguhIfDTP4e4jdXl1wAayz8BIBHn3ySa2+8kdvuuIPZz79AqVQijmOcS+Vsfaa8tyR/2y7cl18Z9YDOWkOnSXk0Cmc0NGJkcmzSauGdZ5sttuCAD+zPjjvsKGAA0iTB2O6QLhJamty4LFFFyb+w8l77TPa7rGT590HyoA0oUqiGj4PTwnSv5/Xv4Vf0IGXQckSRbDQ667nn+N0fruSPN93IvEULKZXLREQ66VduFPYaz1o/W6tk+cbC6AW0tqwq4Awg3SaSadouTWk1Gmy0wQZ8aL/92XP33amUitlcvjB05xsyg5wPPDz87TFGFiIHq87eADzVfHpyXgvmgTgcMEbLCXodLbp4X0JJ9H/9M38FeXS5urjxvPq+4ZHHH+fXV1zOLbfdQbvToVwpd/dGDNfMFU6KtnxjYdQCOkg3QhaMK2mYyFiajSY91Qrv2ftdfPSD/8X4cePw6qVA9wJfrIRGzjpLt5k9kl7X5eRGN/p5HeLRFfu1Oyrd9aZLN4zJOZe7faVbVF180mR82xFHQqVuv+tuLvzVxfxj+nQKpTI2ssheQrkV8Y1EYl6tSpYXGR2ADlEvbci82RScU0owJGzsHM16nS2nTuV/PvVpdthyCwBZANHaf9logTdDV+sOGdaHnd/stKnVasxfNMCCBQsYGBigXq/TarXEQ2IM1hpKxRLlUolKTw99vb2MHdNPf28v1UqVovL4TLyXeY5I5zPW5vw03QIYpAd76WHS2QzaS+Q6No5YUBvkkt9ezmVX/I56s06pXBWN7lEa4jIrITOos4Suf1Fhb6CMDkDnJFS3dwpq6zAuks9jQ6fVpmQt+/3Hf/DxjxzAmN4+AbKqPRPCxQzBRbi4VpAuSO4dPvVEcZz9ttVJeP7FF3lq9iyefuYZnn32WZ5/4UXmzn2RgcEazXaHdqdN0kl0JNDeiMxjjKOIuFCgWChQKhUY09fPaquuyuoTVmfi2mszae2JTJw4kTUmjKeaizw6l6rd283Cyxc5+yP8PtSTdzjniLXD/PWBB/nBBefz0KOPUq5UBbhendcK3q7pO7yClr2MDkAvRkN3y+zx6ldu1musMWECXzjwf3nH294KOJIkxZoIYy1eLS5Djojm2y7HRbsJQjBQrzPzySe47/4HuP+hB3lm1iwWLhqk3W7L4orWEsUxkRUX33DQ5ccUr9re6b6CPuSGOIc1lmKhQF9fHxPXWoupm05h6622ZOMNNmS8uhSlfPocpjuWCBZzhp0+i6f7XD71RIWI+QMD/OjCn3HlH6+RNfTiGJfqKlEghjVkNkL3OZa9jA5Aq8Y02nIeJMIXGswamrUaO261NQd//gtMXneS7Odt5RkFv/KswfDqGpJeNxZKZJJsXAAMnTTlHw8/wp/+ch9/e+DvPPX00wzUa2ANhUKR2EYSnJErDwFOVyT1U+6xuDoOZeuKc6JRO50OaZpSLpdZa6212WrKFHbcdju22XpLxvX1yW+TRK6h6ad6xe71jAHvtITIOh/OEUUFPHDlddfx/fPPY/5gjWpZDEbx3MgGrYFyeB3ZlgcZFYD2OQ1tnAdrZLUjjea1mnX23XNPvvJ/n6evWiVJEqxqyyDSIAIu7QaAbCfsdLY3wMJFi7jrvr9y3c03c/+DD9CoN7E2plCUlT0xEnhBbbRMn/mApO5aeuTuO/Qzqe+umyw7WWlF9zcC7gSXdChEMZPXXZc9dt2Vt+3yFtZfdz0sMoPdeOmYOTRrR9LRwVu8caIQHHhkgcp777+fb519Dk/PfpZytULq5DcyigUNHa637GVUABovZMEGJWjAWINLU9Ik4ZMHHMCnPvpRYhuRJAlRFJ5HQC1Tm+RvAY8YVs7JwoYA8xcNcM11N3DdTTfw+DNP0UkdxUqZyFiM13yLrCOE4b17xe6boTZUGAnyGjobHTJqkDs5L+FZjQR6vHd0Wm1cmrLqqquww3bb8b5938XWm04FJDDkrfzeeoOzEkIP1zJWwAyiuRPvKMQxs+Y8zylnncFfH3qQSm8vOCdJfKZrIo4KDR2YXzdSNbT1ugwu/J+/ztBPhjeXCf/lvgh1D10X7xDxUslGs+Ii7znw05/hI/vvh3dOAGaNrqPRpRbGCCCDN8TpLrKRtSys17nxxhu5/JprmPHEE8RRTKlQkMYMVEdBKIlMgWR0ZWQbOwA81L/UdLifMZKll3YSWq0WY3t72G2Xt/L+97yHqZtsAkCSJpkvWnqEPoBe1+DRQSYbnV5euJDTvvNtbr3zT1R6e3Q54a50m6r7aXBbZn+/SkXkR6fsffhtpqHC+y44Fmecvi5AZ3U7pPXyX3d/MOQKCrwgr/agixV1jw39qPuJMVY2efeegz9/EO/bZ+/Mi2E0l7nbdPIm04g6hEdRhAfuuOceLvzlxTzy6GP4OKZYlDryMiYrmEO3lfPDCvz5MPgSPN1rku7zDq18eSdRPmPFj54kKc1Wi/6+Ht699958ZL/9WX38+MzfLgvohEsNv5b8n6YpcVyg1mhyxne/xx9vulE1tYTMQdoz/5xGjV4xcDUDUY9QfmMMkbXYKNI91nWbOq/1GbQNWrbsPaBRTIbV7+sCtNw0XFEHn26d5M5TaBujDx4moDq8E42YOk27CcEPvUL2v1XPgBXNadVbAMJZnQcTGdKkQ8FYDv7iF/mPd75Tfct6bn4sCXGIoKFTeXhrLc8+/wIX/uIX3HjbbTQ6HYqVcsbPPfI7jwDa6jP78JnWoc0HXRZffSMjIdgS2iJ8nN3TgjWkLqFVb7DhOpP4yIc+xL577yX7tSSpBJB02zo8eOVueb+Pd8Kpm602p3z321xz4w309vTLxGFtaWMNzkOaJiSdhDRNiOOIYqFIT6VCf38/lUqFYrFIZC3NZpOBgQHmL1xIs9Wk1e5gI0scFyjEMUb3uskA4b0U0BhBV75ja/FfH6A1b8H4bg6D3F2GboO0ptWe2tGHdGlKFEWUi0V6qlV6e3oplUqUK2XK5RJRFMuw6RxpIpXTbLdotFrUaoMM1mq0mi2SVHIs4rhAXCySpgk+6XDw57/A/vvuS5qGxlLjL+vloeNI/ppzKdbGGGO4/tY7+PHPfsqsZ5+l0lMVAzO4wRQoZljHJUdd8pKr7qUi2fW1Q2UfGnkTFAfqqTEYmWHjHHvuthv/89//zaS111ZuLQEoY9Rnn9OG8jfiurOGVrvDKd86k+tuvY3enh6c86SpUJzIFhi/yqpMnLgW602axHqT1mHSOhMZP24Vent6KFfKujVGRLvdZmBwgJcXLODZOXOY+cSTzHzqCZ5+ehZz571M0ulQLJWIYtlqLyi8DI+5ig2fvS5A48AZL9P19bcgwx3G0HEpnU6CTxKKhZhVxo5l0sS12XC9yUyatC5rr7Um48aOo6enh55KlWKhQJTz73pkfWTvPUma0mg2GazVmL9gPs8+N4cnnnqCx2Y8ztOzZrFgYBGkji9+7nMcsN/+avwJdcAYrPc4fUWNGe+EPkRRxMJ6nR9d8BOuvOZaPLJ3oYwaGnnTIdWDdl6pAkM35DwM42+M5JQKyLN2CyQjl5XNtACIrMUDjVqNiWutyf8d+FnesctbJR3WeYyNxTI03ahgNuxoCN7GlkX1BseffDJ3/PkuCsUiY/r72XrzLdl1p53YdONNWWP18VRKrzLlzOt/wzUAkCQpz780l388+ih/uutu7vv7/cxbuICoEFMolgTYTtdM0UxEw5Jo6O6AhjHSW7uWEOoRiKQCrfSgpNOh0+nQW+1hg/Ums/mmU9hsyiZsvMEGrD5hwivDuK8m/+TBgzTbbZ59bg733X8/PnV8aP/9u0GA3Hkml8sAOro4RxTHTH/yKb79/XP56/0PUOmpEhnVytpJxesaYKIjUaYJc1WRk/xnr176EZJQllwhgpYdanABxmOQQFK73SQy8JH//E8+89GPUSwUlIJYaWK9ZtZ59VLOOaI4Yu68+Zx19ndYa+La7PWOd7LJ5PW7z+o1epk9v2Am1yJSylC8kDpghSIFmf7kU9xy+x3cctttPDVrFoVSibgQk7p0KL0NO/2+AtAeUuOUGxodirRBs+QUbVovQxEmwnlHu9UmwjNxrbXYYfsd2OOtb2XKhhtSHTJFCSkMKGA0Q8DIM76C++fbSp9eDAePwWLjoYk/WQMaudiQRg3aWY2UOI65+6/3cfq3v8Pzc+dS7qnKb53r1rxeJ2uNf96/lksJdZoB2slsFxPJCNiu13j723bjkC8exKpjx5J0xAtibNf7k4W+VVt7jZam3umywuBTnXoWFoG3qDIMiiS0ZLcCszJl4HQyCccbJO1crv3iS/O44g9XctV11/LS/JcpVXvkWsHTpI3ySkCrqwaNomUqHTInvKCvy7OajSaFKGbrLbdg7z32YIfttmXCqqtqgQU8GTiD9avFH6Ls/DAA6a+677riw2cKbmk06XB5zdwVL7NRNIwcxTG/v/56zv7+D2m22xRKJVyadtUQUpbMTsil/rzO3Lk3VKReuhHJ7hehj4ovvlars+XUjTn60ENZb+11RFPHkdRtrp3osg+cF8UXFIZHFre0wbdvxJYKsGYImgL1Uyxlr1LHOMGXc0KF4kIBgBlPPsGFl1zCTbffRhQVKcSirbM031cAeriGziiHUVeJFNBaS7vZILaW7Tbfkve+ex922XnnjE6kaXcWxGIBNgS4yMOEXAP5Qa4B5H14+O7fenaO5g05Lf87NW68F2v9V1dcwffPvwCsJQ5GR2ix7Mw8tepee3GP86aRQCE8OZ+PpLjWajU2WHcSxx8xjY3WX4+kk2AjDT5hsu4s4e9QMYIP8XB06y53u+yzbut127ArgrGhzoWuSOafKKIUz+VXXsnPfnEx8xctolgSbm2MeTVAp0Teyk0yjRV4tETg2q0mUzbckI9+6MPstvNbKBUKWVJ8APFigRxkyDioH+n1vaKz25e7/br744CsHKcf9nWoFHkrVMLGMb+47FJ++JOfEBVK2EjXryAANdzzFZd800t3eA/KaWj9WxvRaDRYe8J4TvjqV9lso43EuLYRXqOI1qqbcljH9qqQ5L3UnZrTQ0At3+kvvAKOoP67EnDgjeRkey2/dxJTsNbywKOPcub3vscTs56hEIsGf+XoKc8qF9MLOcVMZA2tRoO+SoXPfOzjnPGNk9hrt10pRjFJkuBDvnF4MB/WWht6kHtIjCbO5KiICT5j/X3+fXaNjBuLnhn+vSFX604MQBvH/PqKK/jhT36KLZY0PK4GsDGyRlw4P/f84RhS7jehGIN6o9AFKYc+TZqmVKoVnn3xBY4/7VQee+IJmXPoXUZHvZftirwNU7TkFf0Or14gfUXrEi/eCZzDuS4NxRsBqpFyOcWD98H4zuPGy1Q4DJ1OwpZTpjDtsMMpFUtCkzNA559LL46xGWeWXulo1mpsM3Uqp3z96xz48Y+x6tgxpB2xZKM4znHtxeu28KnPGWtSCZ40TUnTVPIv9PDKv1N13clDhd7arcRw3fyrYF0qxOlQdfUNN3Du+edjC0Wwsk6FdAw9T/m3CR1MrxWO/D3etKKDmdH/TNCOan8kaUq5p4dn5szhhFNO4dnnXiCKIpI0zYDiCUoPVTZaLwa8CcEYaa/UObFNnM+igVEWHDOiKVOPT1JIPVYTqUA6xPA2CBso2SjCOceEVVahWChmsQJl0nmNKYUNvDmKLGmnjU0dn/jIRzj1hOPZYuONSJMUn3pspPm9WaVIkwdg5AESoOecbLwjhZACRrp3Sf4I67dFuT2rvRdtmw+hBitX0hiDxpfHCd6M2/98D2eefTbeWkxkZOjS5x1iCK5gklcuRqdcuSSlWu3hqWef5aSzzmDeggXqv5YleIzAVes6vIZRFfDSNlYnLERxDJGl3mnz4svzeXr2HJ6ePYf5iwZIvfi1oziSqWreSwcg9JzuCJ51QCPeNWslzSE8A4C56c47/HEnn4LVPIVgFBpviSJLs9Vg/Nhx/N9nD+Rde+wOpKSJ05V7QnBUdbM8qUj+fU6jBms0/3m90WCgNkit0aDdlkiW9xDHEYXIUoiLVCoVent7qZReucyWkwlwWgYpiw/+0ihixlNPc+TXvsaL8+dT0AmwXcNEuq6orBVQNFUU68F1Pe4OiOKIgUUDvOvtu/G1I44iyo1aocJDXRu6a4NEmmr70oL5zHh8JtNnzmTmU88w57nnqA0O0u60AUO1UmG11VZj8rqTmLLRxkzZaCPWXXttKYGOzsPxAtLGzom7cO78l/nE/32BeqNOFEVqFJ50ClFJNzL36tezlma9xkbrTmbaoYew6UYbSVK8oZtHrEN68AaIouuiOORnFDQFE6DRajD7+ReZPnMmjz/xBLNmz+all19msF6n0WqRtHXpWJAQeGSJo5hquUxvtYc1V1+ddSety0brT2b9yeuy+mrjKcSaOeY9SZro5FbJT1iwaJDDvvY1HpkxnWq1KrnBWWnMkMy7FVIyBST8V8DZ9X9Ya2nUBjnwU5/m0wccQNqRdANUaYIBL+kDMvkBZjz9NNfccAN333svc55/gWazAUo3unnosthlqm7UUlxg1XHj2GLzLXj3Xu9k+623JrYWl5seF9rI6wgRGcvcl1/mE58/iFpjkDiKMbfceYf/2smnEBUKYigg2zA0a3W23XobjvzKl1lnzTU1KV4X5NZZ0dkDSTcPNUOqkysjDXoMNBo89MjD/O2BB3jw4X/w9KxZLFy0iCSR6Uk26iYbhQUKjeATjJewbaAZyq2LJVntc711JzF1yiZsPnUqm06ZQn+5ArqWho1jvnXuufz6it/R09cnC6p4g7EO5yzWamdcnBdlBZOgZeW9dvJAKxyQtDnhq0ez2867ZGkFoIaeuv1mPf88v7nicm6+7TZefGkecbFIXCgq7VRlid7IB4WoL86TJgntdodqucQO22zDf+2/P9tvtaXYWKqtw6nei2330ssv84nPf4Fasy7BoJvvvMN/7eSTiYoljPdYLK1Ok20325zjjp7GqmPH0ukkxFG0mLyObLCRh/OSbRXrkPPciy9y+113cePNtzD9iSdodjoC4EJEHMeZUz4YdqokhjxvuI3X9yEK5bwn7XRIkgTjPcVCgQ3Wn8x79t6bXd+yM+NXWYXrbr2VE087lUK5ovdZDLMwau2/4osVRFQRyXSqvIdY9KCo4gjXbjNh1VU489RTmLTmmqRpB1FaMl3r+ltu5fyfXcgzs2dRqpTkczUch9wop/+lxtU1rEiPrCV1jmazRU+5xAfe+14+8ZEP01upSo675qJ4J/bb83Pn8qmDvkij2RDKccudd/pjTzkZUyhigaSTMHZsP+d+80wmrrG6hEHDkC73zNxo0r0k+pY6yZk1wLPPP88frr6KG++8k9nPPYfFUizK7A5vJFcEJ/kWgLhuBKddt6QnVwnq1sl9ZsOaESFP03manTY4x/qTJrHLTjtx+9138/ScOZrHrLNacu6+FRXDr0UcYL3DIUGVyFqag4O8ZYftOelrx1AqFrDG8sJLL3HehRdx/c0347yhUCqQelm8smvNqHbywfeXI9+5LqSqGk8kW3IkHTrNBtttvTWHffnLTFKmEBnxUNnI8vCMGXzxyKPESAXshAnj6e3tU8tSGllcZjLEG9t1gRjUjxkKGIDtPYW4wKJajYt/+1u+Mu0ofnrJr3nhpZcoV6qUKmUwnpREhn3lsdol1ARRX6W6e4J7RqxX0aJWNbnNfJ0en0pGmTNQLlUol6s8NXs2F156CbNfeJ5SsSh+6FBtnu4QuFJeVcS0kFayCBbKvb3cde89/OLSSzHGcvu993DY147h99f+EVOIiYuF7pzD3GLxTnEi3hRRXgHX4neW33kFvAFIZE5ouaeXe/72N44+8UQef+YZ4jgmUS+KMYbHZkxnsFYTD5iB6MRvfOP4m2+/nXkLFxJHMZGNmL9wARuutx6bbrxxNn3eGwVyrtc55zLf4l8feJDTzjqLq669llq7Tala1fl2MtSDplyGAiugxMJWkOmX4cHDABi8ENKhtCOHN3qx/LBltXKNZNfIb/SnwUXFSg39T0WqJng1hPN5hE5OnzmdR2fM5JeXXcaL8+ZR7enNAiXh99IsipXQtsrJwyiceUuN2m7hN4HYGokhlMplXnxxLvc/8Hd22H47xo0Zg/Nyv5/84iJmzXmOYlF29bVjenvZaP3JtNsdjJHpOHEc8/urr2aw2cQYIxRBRwzhWjJFPooiWp0O5118MUeecAIPPPYYpZ4qhTiGJBVta0QHy4PoYdTwMwZrLBbZrswb6dmhLkL0KCQHedPdEcrk17dAcrIzv6NzAmTU0673Fo2zUkO/FhHffs7HbGQGi40srSTlpjvvoKPLKPg01aSk7sgq7SR1bYPuCUopUy7CGKWJpE3kfhKJlGuBT1N6eqrMePoZzvze96jVa8RxzEOPPMr9Dz5MpVIW49SDtdbyrj33ohRHMp3GO8rlMo/NmMnV112vERmPcQ5rZMuO1DmiQoEX5s3juJNO5ic/u5BOklAul7oBj6A8FcAy1HsxCEJoOX9oR+nmjmSKtWssKr3Jn4uXPu0DaL1UglGaEoY+0eDda6+Ufy5S51qfqgy8CXRQfMhG/cFi3ww9gm4RJditelFvQ9979Hd6T0KbiTbDa1i+p7eXP91zDxf+8hJaScJFl/yKWqOJNTHeGFpJG9NqtbyJLId+9Rj+cv8DVKriEUjSlL5yhZOOO46tN9uUpNMRnuI8USHmsSee5JQzz2L6449TqVbxSIy+q/lymjbQhNw3OuqMoIhZEK4d7rB07rWiiaIyaG6lbN2/tQdktfx6alzO7WImUEnw1pJ2Oozr62PzqVO54667iGKJn9jIsGhgIaZer/tKpcKtd97J1046iahcBjWc2q0Wa42fwLTDD2ObqZuJ2ySKuP/Rxzjx1NOY/fzz9PT2iQsnPLSo5UyrrkTUSnk94hG6Y7zuiGAM6OI6pWJRFqA3lqTdYuJaa2KazbovxEUwhhPOPJOrbryBsT39pK6DtRGdVpu+nl4++dGP8L599+Gxxx/n2JNO4qUFkoeKRg+HhCjCcKP7ZA/pvCtlpSyByCpUqhUzHKkdFqgqkDZbHH/00ZhWq5EBeu7ChRx2zDHMeHwmld4eXMeJzy9JSNIOW2y5BfNeepln58ymWK7q+hSa9dpVzkNlpYZeKa9HspHey17o4UMVE1nqgwN87IMf5KD/ORDTarZ8sVTEpSk2inh45kyO/cY3mD13LtVKBafrNngDzWZLl3uNM74sXGclWlfKSMvQyG7XIpK/jGrpwcFB3r33nhz1lYMpWItpNptefHjivYjjiEdmzBSD74nHqfT1ygWcRNkcMrEyqH7UJbdSVspSEa+eL41LeAxEhrTTIW02+c/37cf/+5/PUCmW8N5hGs2mLxWLWbAhrFPx3Isv8YPzz+emO+8gcSnlUlk0td4nw3N241x3WikrZaTE639KB5I0odFsssb41fjof36QD+23nyxKlKYyD7bVavliALQ6vl3qZJ8N77n5T3/ikssuY8aTT9JqtyFPi/Umso2DzDUcTqFXykp5fdI1wKyxjO3vY9edduaA//oA602c2J2poi7l/w/aGcnhA62zvQAAAABJRU5ErkJggg==;" vertex="1" parent="igetMSzc9jm7YL5A2QUc-1">
          <mxGeometry x="469.68" y="309.5" width="100" height="100" as="geometry" />
        </mxCell>
      </root>
    </mxGraphModel>
  </diagram>
  <diagram id="pLYoExOTDnmxo1htJ-rA" name="fad-single-vm-x">
    <mxGraphModel dx="794" dy="511" grid="1" gridSize="10" guides="1" tooltips="1" connect="1" arrows="1" fold="1" page="1" pageScale="1" pageWidth="1654" pageHeight="1169" math="0" shadow="0">
      <root>
        <mxCell id="0" />
        <mxCell id="1" parent="0" />
        <mxCell id="mgFdqYGFPJEuqThOewZg-1" value="" style="rounded=1;whiteSpace=wrap;html=1;sketch=0;fontSize=10;strokeColor=#007fff;fillColor=#FFFFFF;gradientColor=none;gradientDirection=south;absoluteArcSize=1;arcSize=4;fontFamily=Helvetica;" parent="1" vertex="1">
          <mxGeometry x="220" y="130" width="860" height="340" as="geometry" />
        </mxCell>
        <mxCell id="mgFdqYGFPJEuqThOewZg-2" value="" style="vsdxID=12;fillColor=#f0f0f0;gradientColor=none;shape=stencil(hZNRcoMgEIZPwysDrJjw2EmTC/QETqSVqdUMMa3p6UtcNIAk9Qn+/Ve+XVgCu3NTnTQR7DzY/lP/mHpoCLwSIUzXaGsGtyKwJ7B7763+sP2lq3F/qpxTsEnRNebwm1uwyh7fzK9GjVHgG4kBzPzqv28njj6OoevsVsUkHNB7vFg089g9b2nBVPCVJcZHMcfLjc8Q0Q9G8MRUFt4AoWE6nr04gtZ0Aa3a0kLGxM9wlaIgEuSY0DmUShAfFQXrFMi1Lccd5CwKk/+wLyl3SW5X/EuFXuIsaXLYNIg9j3iDe8kkZN7F/aJ5ShHf/FWsa4HYAdkOZSifv123mIYEx8e0Lc5YGE+Hykk4kLD/Aw==);strokeColor=#bfbfbf;spacingTop=-3;spacingBottom=-3;spacingLeft=-3;spacingRight=-3;labelBackgroundColor=none;rounded=1;html=1;whiteSpace=wrap;arcSize=17;" parent="1" vertex="1">
          <mxGeometry x="561" y="170" width="206" height="240" as="geometry" />
        </mxCell>
        <mxCell id="mgFdqYGFPJEuqThOewZg-3" value="&lt;p style=&quot;align:center;margin-left:0;margin-right:0;margin-top:0px;margin-bottom:0px;text-indent:0;valign:middle;direction:ltr;&quot;&gt;&lt;font style=&quot;font-size:9px;font-family:Arial;color:#000000;direction:ltr;letter-spacing:0px;line-height:100%;opacity:1&quot;&gt;Internal&lt;/font&gt;&lt;/p&gt;" style="text;vsdxID=11;fillColor=none;gradientColor=none;strokeColor=none;spacingTop=-3;spacingBottom=-3;spacingLeft=-3;spacingRight=-3;labelBackgroundColor=none;rounded=1;html=1;whiteSpace=wrap;verticalAlign=middle;align=center;;html=1;" parent="1" vertex="1">
          <mxGeometry x="572.9466019417475" y="187.8886567164179" width="184.49417475728154" height="18.576119402985075" as="geometry" />
        </mxCell>
        <mxCell id="mgFdqYGFPJEuqThOewZg-4" value="&lt;span style=&quot;&quot;&gt;172.16.136.64/26&amp;nbsp;&lt;/span&gt;" style="text;html=1;strokeColor=none;fillColor=none;align=right;verticalAlign=middle;whiteSpace=wrap;rounded=0;fontFamily=Helvetica;fontSize=10;" parent="1" vertex="1">
          <mxGeometry x="675.2524271844661" y="382.20895522388054" width="91.74757281553397" height="27.791044776119403" as="geometry" />
        </mxCell>
        <mxCell id="mgFdqYGFPJEuqThOewZg-5" value="&lt;font color=&quot;#000000&quot;&gt;Public IP Address&lt;/font&gt;" style="aspect=fixed;html=1;points=[];align=center;image;fontSize=12;image=img/lib/azure2/networking/Public_IP_Addresses.svg;rounded=1;sketch=0;strokeColor=#007fff;fillColor=#FFFFFF;gradientColor=none;gradientDirection=south;fontFamily=Helvetica;fontColor=#999999;" parent="1" vertex="1">
          <mxGeometry x="170" y="200.00000000000006" width="65" height="52" as="geometry" />
        </mxCell>
        <mxCell id="mgFdqYGFPJEuqThOewZg-6" value="&lt;span style=&quot;font-size: 13px;&quot;&gt;Virtual Network&amp;nbsp;&lt;/span&gt;&lt;br style=&quot;font-size: 13px;&quot;&gt;&lt;span style=&quot;font-size: 13px;&quot;&gt;172.16.136.0/22&amp;nbsp;&lt;/span&gt;" style="text;html=1;strokeColor=none;fillColor=none;align=right;verticalAlign=middle;whiteSpace=wrap;rounded=0;sketch=0;fontSize=4;labelPosition=center;verticalLabelPosition=middle;horizontal=1;fontFamily=Helvetica;" parent="1" vertex="1">
          <mxGeometry x="251.81" y="420" width="766.83" height="50" as="geometry" />
        </mxCell>
        <mxCell id="mgFdqYGFPJEuqThOewZg-7" value="" style="aspect=fixed;html=1;points=[];align=center;image;fontSize=12;image=img/lib/azure2/networking/Virtual_Networks.svg;rounded=1;sketch=0;strokeColor=#007fff;fillColor=#FFFFFF;gradientColor=none;gradientDirection=south;fontFamily=Helvetica;" parent="1" vertex="1">
          <mxGeometry x="1018.6433333333332" y="430" width="57.548333333333325" height="34.32833333333333" as="geometry" />
        </mxCell>
        <mxCell id="mgFdqYGFPJEuqThOewZg-8" style="vsdxID=113;fillColor=none;gradientColor=none;strokeColor=none;spacingTop=-3;spacingBottom=-3;spacingLeft=-3;spacingRight=-3;labelBackgroundColor=none;rounded=1;html=1;whiteSpace=wrap;" parent="1" vertex="1">
          <mxGeometry x="810" y="170" width="207" height="237" as="geometry" />
        </mxCell>
        <mxCell id="mgFdqYGFPJEuqThOewZg-9" style="vsdxID=114;fillColor=#f0f0f0;gradientColor=none;shape=stencil(fZPdcoMgEIWfhlsHWDXhspMmL9AncJRUplYzxDSapw9xpfyExCvcPQe+XVgCu3NbnSTh9Dzq4UdeVTO2BD4J56pvpVajWRHYE9gdBy2/9XDpG/w/VUbJ6RKRDXrYQ81ppesvdZMYoxmwTYEJdP4Of48TpzWPqXndIcvFEjigtr5oFLNQbX+zQlDvgxzzE7f5crM6eLDBBPa8AlYBWAsrHAH9MBCd6j1gsc3ybQAdWp6hhTA9iMBDTkZphPmqMIgNkGpcAts5/ssoy3fUzuDKyFnI7VcWl2JR/X5F9C9Z3a0kDIlX4a45hp/Ce5/5cy0QKiDZnwTl+5drFsuI4PCorsMJ8/PxSJkQjiPs7w==);strokeColor=#bfbfbf;spacingTop=-3;spacingBottom=-3;spacingLeft=-3;spacingRight=-3;labelBackgroundColor=none;rounded=1;html=1;whiteSpace=wrap;" parent="mgFdqYGFPJEuqThOewZg-8" vertex="1">
          <mxGeometry width="207" height="237" as="geometry" />
        </mxCell>
        <mxCell id="mgFdqYGFPJEuqThOewZg-10" value="&lt;p style=&quot;align:center;margin-left:0;margin-right:0;margin-top:0px;margin-bottom:0px;text-indent:0;valign:middle;direction:ltr;&quot;&gt;&lt;font style=&quot;font-size:9px;font-family:Arial;color:#000000;direction:ltr;letter-spacing:0px;line-height:100%;opacity:1&quot;&gt;Protected A&lt;br/&gt;&lt;/font&gt;&lt;/p&gt;" style="text;vsdxID=113;fillColor=none;gradientColor=none;strokeColor=none;spacingTop=-3;spacingBottom=-3;spacingLeft=-3;spacingRight=-3;labelBackgroundColor=none;rounded=1;html=1;whiteSpace=wrap;verticalAlign=middle;align=center;;html=1;" parent="mgFdqYGFPJEuqThOewZg-8" vertex="1">
          <mxGeometry x="12.7" y="11.83" width="182.88" height="12.7" as="geometry" />
        </mxCell>
        <mxCell id="mgFdqYGFPJEuqThOewZg-11" style="vsdxID=117;fillColor=none;gradientColor=none;fillOpacity=0;strokeOpacity=0;spacingTop=-3;spacingBottom=-3;spacingLeft=-3;spacingRight=-3;labelBackgroundColor=none;rounded=1;strokeColor=none;html=1;whiteSpace=wrap;" parent="mgFdqYGFPJEuqThOewZg-8" vertex="1">
          <mxGeometry x="95" y="210" width="111" height="27" as="geometry" />
        </mxCell>
        <mxCell id="mgFdqYGFPJEuqThOewZg-12" style="vsdxID=118;fillColor=#ffffff;gradientColor=none;fillOpacity=0;strokeOpacity=0;shape=stencil(hZNNcsMgDIVPw5YRkn+XnTS5QE/giWnN1LUzxGmdnr6ORaYoJSkrkN6DT4AUbY5dc7AK4Tj58d1+uXbqFD0rRDd01rtpmSnaKtq8jt6++fE0tLw+NIsSYY3Ylj3mokZo/P7FfVuOgSZT5pxg58f4eTlxDnlOncMORufFGtmxeH/yrDZSHpa5hrKORsXpGcN2GsPRZxT+mXiJuiqCgGLBejo8LQC9GyLautSmEMTwiLaudCmB4QYQQANKxHs1UcJCyWtLgAsXh6pKZ9kjeuG5VpTpGmUNUZFxVZnEjm+O/sjuYUfvk/YkqH/f3CRw5D+4EsdlkVRQ8rYSrP/85GWy9gx3k+t7brk4f9tjS4j7k7Y/);spacingTop=-3;spacingBottom=-3;spacingLeft=-3;spacingRight=-3;labelBackgroundColor=none;rounded=1;html=1;whiteSpace=wrap;" parent="mgFdqYGFPJEuqThOewZg-11" vertex="1">
          <mxGeometry width="111" height="27" as="geometry" />
        </mxCell>
        <mxCell id="mgFdqYGFPJEuqThOewZg-13" value="&lt;p style=&quot;align:right;margin-left:0;margin-right:0;margin-top:0px;margin-bottom:0px;text-indent:0;valign:middle;direction:ltr;&quot;&gt;&lt;font style=&quot;font-family: Arial; color: rgb(0, 0, 0); direction: ltr; letter-spacing: 0px; line-height: 100%; opacity: 1; font-size: 10px;&quot;&gt;172.16.137.0/24&amp;nbsp;&lt;/font&gt;&lt;/p&gt;" style="text;vsdxID=117;fillColor=none;gradientColor=none;fillOpacity=0;strokeOpacity=0;spacingTop=-3;spacingBottom=-3;spacingLeft=-3;spacingRight=-3;labelBackgroundColor=none;rounded=1;strokeColor=none;html=1;whiteSpace=wrap;verticalAlign=middle;align=right;;html=1;" parent="mgFdqYGFPJEuqThOewZg-11" vertex="1">
          <mxGeometry y="-0.42" width="111.13" height="27.94" as="geometry" />
        </mxCell>
        <mxCell id="mgFdqYGFPJEuqThOewZg-14" value="" style="aspect=fixed;html=1;points=[];align=center;image;fontSize=12;image=img/lib/azure2/networking/Route_Tables.svg;rounded=1;sketch=0;strokeColor=#007fff;fillColor=#FFFFFF;gradientColor=none;gradientDirection=south;fontFamily=Helvetica;" parent="mgFdqYGFPJEuqThOewZg-8" vertex="1">
          <mxGeometry x="4" y="200" width="33.03" height="32" as="geometry" />
        </mxCell>
        <mxCell id="mgFdqYGFPJEuqThOewZg-15" value="" style="aspect=fixed;html=1;points=[];align=center;image;fontSize=12;image=img/lib/azure2/networking/Network_Interfaces.svg;strokeWidth=2;movable=1;resizable=1;rotatable=1;deletable=1;editable=1;connectable=1;direction=east;container=0;" parent="1" vertex="1">
          <mxGeometry x="561" y="269" width="35.13" height="31" as="geometry" />
        </mxCell>
        <mxCell id="mgFdqYGFPJEuqThOewZg-16" value=".68" style="text;html=1;strokeColor=none;fillColor=none;align=center;verticalAlign=middle;whiteSpace=wrap;rounded=0;fontSize=13;movable=1;resizable=1;rotatable=1;deletable=1;editable=1;connectable=1;direction=east;container=0;" parent="1" vertex="1">
          <mxGeometry x="566.56" y="300" width="24" height="30" as="geometry" />
        </mxCell>
        <mxCell id="mgFdqYGFPJEuqThOewZg-17" value="" style="vsdxID=12;fillColor=#f0f0f0;gradientColor=none;shape=stencil(hZNRcoMgEIZPwysDrJjw2EmTC/QETqSVqdUMMa3p6UtcNIAk9Qn+/Ve+XVgCu3NTnTQR7DzY/lP/mHpoCLwSIUzXaGsGtyKwJ7B7763+sP2lq3F/qpxTsEnRNebwm1uwyh7fzK9GjVHgG4kBzPzqv28njj6OoevsVsUkHNB7vFg089g9b2nBVPCVJcZHMcfLjc8Q0Q9G8MRUFt4AoWE6nr04gtZ0Aa3a0kLGxM9wlaIgEuSY0DmUShAfFQXrFMi1Lccd5CwKk/+wLyl3SW5X/EuFXuIsaXLYNIg9j3iDe8kkZN7F/aJ5ShHf/FWsa4HYAdkOZSifv123mIYEx8e0Lc5YGE+Hykk4kLD/Aw==);strokeColor=#bfbfbf;spacingTop=-3;spacingBottom=-3;spacingLeft=-3;spacingRight=-3;labelBackgroundColor=none;rounded=1;html=1;whiteSpace=wrap;arcSize=17;" parent="1" vertex="1">
          <mxGeometry x="269.25" y="170" width="206" height="240" as="geometry" />
        </mxCell>
        <mxCell id="mgFdqYGFPJEuqThOewZg-18" value="&lt;p style=&quot;align:center;margin-left:0;margin-right:0;margin-top:0px;margin-bottom:0px;text-indent:0;valign:middle;direction:ltr;&quot;&gt;&lt;font style=&quot;font-size:9px;font-family:Arial;color:#000000;direction:ltr;letter-spacing:0px;line-height:100%;opacity:1&quot;&gt;External&lt;/font&gt;&lt;/p&gt;" style="text;vsdxID=11;fillColor=none;gradientColor=none;strokeColor=none;spacingTop=-3;spacingBottom=-3;spacingLeft=-3;spacingRight=-3;labelBackgroundColor=none;rounded=1;html=1;whiteSpace=wrap;verticalAlign=middle;align=center;;html=1;" parent="1" vertex="1">
          <mxGeometry x="281.19660194174753" y="187.88865671641793" width="184.49417475728154" height="18.576119402985075" as="geometry" />
        </mxCell>
        <mxCell id="mgFdqYGFPJEuqThOewZg-19" value="" style="aspect=fixed;html=1;points=[];align=center;image;fontSize=12;image=img/lib/azure2/networking/Network_Interfaces.svg;strokeWidth=2;rotation=-180;movable=1;resizable=1;rotatable=1;deletable=1;editable=1;connectable=1;direction=east;container=0;" parent="1" vertex="1">
          <mxGeometry x="440.11999999999995" y="269" width="35.13" height="31" as="geometry" />
        </mxCell>
        <mxCell id="mgFdqYGFPJEuqThOewZg-21" value="" style="endArrow=none;html=1;rounded=0;entryX=1.081;entryY=0.567;entryDx=0;entryDy=0;entryPerimeter=0;edgeStyle=orthogonalEdgeStyle;curved=1;" parent="1" source="mgFdqYGFPJEuqThOewZg-5" target="mgFdqYGFPJEuqThOewZg-19" edge="1">
          <mxGeometry width="50" height="50" relative="1" as="geometry">
            <mxPoint x="440" y="340" as="sourcePoint" />
            <mxPoint x="490" y="290" as="targetPoint" />
            <Array as="points">
              <mxPoint x="340" y="226" />
              <mxPoint x="340" y="282" />
            </Array>
          </mxGeometry>
        </mxCell>
        <mxCell id="mgFdqYGFPJEuqThOewZg-22" value="&lt;span style=&quot;&quot;&gt;172.16.136.0/26&amp;nbsp;&lt;/span&gt;" style="text;html=1;strokeColor=none;fillColor=none;align=right;verticalAlign=middle;whiteSpace=wrap;rounded=0;fontFamily=Helvetica;fontSize=10;" parent="1" vertex="1">
          <mxGeometry x="383.5024271844661" y="382.20895522388054" width="91.74757281553397" height="27.791044776119403" as="geometry" />
        </mxCell>
        <mxCell id="DRGRGGP7gV4OF0ER-FD5-1" value="" style="shape=image;verticalLabelPosition=bottom;labelBackgroundColor=default;verticalAlign=top;aspect=fixed;imageAspect=0;image=data:image/png,iVBORw0KGgoAAAANSUhEUgAAALQAAAC0CAYAAAA9zQYyAAAAAXNSR0IArs4c6QAAAARnQU1BAACxjwv8YQUAAAAJcEhZcwAAFiUAABYlAUlSJPAAAFumSURBVHhe7Z13vF1Fufe/M2vtekoSIKGFQKiB0KugFBUQ9KrgvSrqtV65vlex0AkiRaQK2AAboIKiCAoqIL0jCIpSpCShhoQSQso5u6818/7xPLP2OoegRE5IOMmTz8reZ++91po185tnfk+ZGdNstXypWMR7Dx6MAec9qfcUoohWknDHXXdz6+138PeHHuTlhQtpt9uAR8SA0bfho5WyUv5N8XhMBijw3mOtoVQqM3GN1dl2y614+x57sN0WmwOQpCmRMQJcwDSazQzQBoPzHmvAWMuDjzzCBRdexH33P0jbpcTFInHBYowBDMZ7vMnffqWslJERL6oy05HeOTrtDkmnTW+lwh677sonPvoRJq25Fi518iMDptlq+WKhCN7jnQcLWMvPf30pF//61ywaGKTcU8UbC95hnANDrh+tVMsrZWmJEY3tBdzORvompVGrMXGtNfn8/36Od+yyC2mSYIzFtJoNXyyVcKkA0xnPOeedx8WX/oZKtYqNI5xzmKzPDJfFfbZSVspISB5zXZ3tDUQ2otVsEVvLV77wf+z3rn1I0xTTbNZ9sVjCOY+JIr7z4x9xya8vpad/DM474daA1Qs6I1Sji+OVgF4pS0MUwF7ee2OwikUhGAZrI9K0g0s7TDvkEN799ndiGq2GL0YFbBRx9S238o1vnk6lWMHj8DiMN2BFPwMK5nCjlbJSlrJkClpALR95gZ8DE1laSZv+YomzTjkNU2/UfblUZtac5/jCYYeysFajEBdwypVDR8muawxkGnqldl4pS1kyTQomaOsMmCLWRjRqg+ywzTZY48EYw6VXXMHcl+ZRLBSVM+tFjHyvbzDI3/JPID0qDu2jxncP9G90qDNagXKOVOvKYykfAXoK4QzMqmjx4FJHuaeXP9/3V2yxUGTO3Be54fbbKFV6cM7hjRBv4w3eZB1hdEtgUbnaNADGSwdWYBv11+NX0q5lIeIx7vqdMUbwisdGMdbGEdddfyMvznuZqBCrEShA9t5nRuGol8CivCjk7mGkHrSTe61A9O+V8sZJxnY90gZe2LTHg3OUikVsvdnkz3/5C4VCQfzMSIMFKrIihU0yuuZlYBMtLQMd3mCclVfp7aq19cwVpN8vLxL4tAFsMBaNxb68YAEvznuJOLJ477KGUTtyxWmngEnlHV4/kD8F1k6HNvnX9fyobl8pb4BokFqUbTi8vHrjsbNnz2bhokVEcRzaMvsB6qFbEcQHw8PocJbjaBmhNuF7Hf4C7fAr6ccbJT4MmHilhEoHvcd4I5Sj3ekovRCNlBk+4YMVQIxRqhGA6ZWbeY81RkL+LiUCrPJr40OQSenHSlnq0tUvRm1D9bipK8QaqwagySUaGSUcSsJXBBFbWAzAIAJSQ7PRJPJQjmOSVgvvNJPFi/PO+zz9WCnLUizeZ6HEgF6v6F+RKAc6bAmX0I+sJWm32X3XXfn6ccdy5imncuCnPkUhkvwWjAx9K0oVvRnE4j1WtZF4OPSbFUzlGNWyxmnAxFrqjTo7bLs1xx1+KLtsuy1TN9qIj3/wg7z/PfvQbNaxNtC0FayylmOxBJqhZFsId44/ryDqJ2ja4Gt2ztFXrfKZT36SUlyg3W7T6XRwzrH7brtTrVQloipEboVTAMurWAKOc9Z7huEVyCjM911jDY1ajXfsthubbbgRaZoSx7EYh8bQbLVJNT1Agk8rEDVbzsWiDRmOV8hiP3zzSuifXsGIvnY7sSHpJIwftwof/sAH1PMRrGiDN4Zrb7iRZruNNTZXPSPX8/PlCjaqfKbD50gcjM5gkB3+wWiXTAsjLh+few3vW60W7333u1l/nXXU+LMkzhFFEX9/8CFuvOUWSpUKqXc6c2fkTMOsPFlHQq5u1KNiUINH/K/h/RIfwfE+ymSFA3RQSh7VepqvYrwAKel0WGv1Cbz3XftkXg8BFLSThF9ccgnNVososjl1ZwQkIyAmlEdBLaOHAjxLjhJ+KCH4f++QXIjhd3/zywoHaNF33de8vWCMpdVsse+ee7LWGhNwqZP8b+eIbcQ1N93A3ffeS7lShTRMSwvZeCODjpDEHjqTiSKJD1gD1r7+w9jMiA3MYzTJCgdo44NXx2CVasgXlnanzaR1JrL/+9+PVw+G8R5rLQvrg/z297/HxJGEXU036OT9yDnuAn9Gp+gPDgzQqA3SqNeo1wep12vyvlajsSRHXV7rtRqtVlNsAvyoox3m5jvv8Meecgq2UJRhF3CExtTMu1H01F29rHraySgcRRG1gUUc+OlP89kDPkKapFhrcS4limMuvepKzjr7bMrVHpl/ifjvfa5qRqKeAt1IOh022mADttlqK1r1BtaGZJPwS/njtd5Tch88hbjAs88/z5333kOxUMgY02iRFQ7QeKURWVRU1hlJOx1WHdfP2WeexVqrjccFzmoscxfM5wuHHcZzc+dSKBZFe2cX7EZVR6KaAqBdmjKmr48vff4LvHOXnYf/7HXJn//2dw468gjG9PfjEjeqxulR9CivTbzSjqBPDRAZS6fZ4r377Mva4yeoZ0M9INZw/U03MWv2bErFknLn7rXQvBc/QkahD6COIuYunM9Jp57C767+IwBpkpAmCS5NcGm6xEen3cY5R6fTzozOkeiEy5OscIBGJzDIIGzwFlqdFmuvuTr77rW3ctgud15Uq3HNDTcSxwXJFzehG3S7RPhrJCQEtrx3FIslnDGcdc7ZXPTrXxPFMUZn4ItLT4zF13IQ3g+JnI0+WeEALS4weSd0wdBs1Njtrbuw5vjxEs62RjLqjOGPN9zI9CeepFguKdjFjyuA6nqfRwojQvMMFoN1HhtH2GKBH/30p5x7wQWkHqyNlMdLph8Y8BYjy16hZw858EbeG3XdaacYbbLCATr4I4KedUnC+FVW5b3vfk/m88V5bGQZqNe56po/EhXjobkeYZ5hLm10ZAhH13gTs9OTOo83lkKpyM8v+RXfOvdcmp02URzh1D+OanYxErXTDTuMjkrd345OWeEALQEUsQmtkVznHbbbnsnrrINLU/1OePLdf/krTz0zi1KpJOv+qYY3IbE8N3qPGEb02hKoEZ3rvccZQ7m3lyuuvJLTvvVtXl64QMsqPDj4rb0U7pWHXHj43UadrHCAFhToKK081LkUEJAnqbx3xnDt9dfTSdMMrF7BtTRhEfzkxgsAjRESgQfvPD39/fz+6qu57PIrMMbqSNE1SkdqpHizygoHaK9eCQM45yhVytx9zz3cefefiQsxhUKBKI658bbbufe+v1GpVIa46ZYmmMnKp3kaIcytoI5sxMDAIDvv8lbe8+59ZSQJWndpF+xNIisEoMUI1DRPDyjTNM4TGUuz4/jGWWfxo4su4vZ77uVHv/gl3/vBDyGyOpzLOTJyL+XpVoHHew/oYpleFiYcrNfYYeutOP7QQ1h7wuqattrV6GH0EK3dXVMlvK4IskIAWrimeCU8wTth8NaTeogKBWqtFhde/EuO/frX+dlFF7JoYIAoigQkRjVnDjRLSzL/sMBUtLO11AcH2GHLLTn+qKMYv9pqJEkyxEsh3F7cjZlLL5e1t6LICgFo0WTBKyEaz+PBWCIbYYwhjmMK1QoUC9m62Hm9Jks7LH1weKUYMjREGBsxUFvEDtttwwnTprHq2LEkSYK1VjyIOcqRGYY5Dd3tICuGjGJA+5yJFBLlg3b1GCydVotmbYBWbZBOqwUenEfznLsgCB4N0YMjJd3ydQEYPtblE6ylWa+x87bbcswRh7PK2LGkieSWhNkzw0EbrpWmafZ+RZJRDGgdsrP3Kh6MsXQ6bTbbaGO+8D//w5f+90A2mTyZTquZLSuVAS5ovNynIyNSPp91GBkBMnddFFGrDbLTNttw/FHTGD92FaEZkYWcZ8MEr41KAHgcx/mbCbD1dyP3DMufjFpAq68g+yuIiSytZpOpU6Zw6gkn8LEPfpADPvABTjjmGNZbeyKdTlsWZAwdwg/dGGnENLRqYRMCKRqowQuY67VBdtlxe4458kjG9ffLHiJRpEtOhACPamR0ooJzWGuoN5vcdc+fMTa49VSLq2tvxJ5hOZRRC+hMP3c9X3gMzoBzKR94z3tYZUw/7U6HdrvN2qtP4N377EOz0SS2NgvAkAPziIpgV0PXgWsY4iimPjjITtttx3GHHcaqY8aQJCk2irDeyxZmoBEi6RhisKZ4PB3n+dFFP+ewY47ll5dfgc2DOuS6jmIaMmoBHSCCAluGdkg6HVZfbTU222xTvPdEUYTVhWNK5XKm1cUzMpS4jKT4jF0IkDEWLAwMLuRtO+7I8UcdxZgxY+gkiU73yhUKgw1TsIyRrRlMhI1izj3vPC777eUUqz388ILz+flvLyOKInBdPi0j0OiUUQxopQ2m69WwxpC2O2y4wQasOX68UmSZuWKs5b6//Y04DmtkB9oyEpwzXKF7tdDJ5L8IayyNWo1ddtqRrx5+GGP7+kiShDiKsjNFIcuzeJ1n6FKH8RLZPOe887j0t7+lVC2DNRDHfP/88/nlFZdj4wiUogAjNmVseZNRC+ghE0qR4dZgSJOELadOJbJW8p7Vm/DywoXMfHwmhWIhMwJNCFoMv/gSSYCivA0g1hAIYIisoTY4wFt33IHjjjySsX39uCQlimK9v5wv8w1FtRtkM0oMEFl+8NOfcPGll1KqVAGTRRHjUoVzf3Qel17xO+KidFY5b3S680YtoLMknQyc4NKUarXCNltvJT9S3633niefeIK5816SZYWVa4xMgwsIvZbJEJZbE0PNWsNgbYDdd9mFrx12OGOqvSRJio9sRn/EmxFmpodooM4qiiJ+8JML+MWlv6bc2yOa24H1FuM81kNcLPD9C87nqhuux6p9kOtmo0pGLaCNV01oVMPZiEa7xYaT12fj9TfI8p6DgfTwjMeoNRrERqpEoDcSIi42g8d4J0D0HrAYE1Or1dl1x504+rBDGdvfT5omWHXNBR3uPeAt3siI4lIn14ws5//8Ii685NeUyhUdWdRzotFQ48DYiNQYzvzu2dz3wINUe3vxLkxFG17eN7eMakCLu0rohjeGJE3YbJMplOJY6IaGizGGBx99FGMDmMO5IwBp9ZZkudMafrfGUh9YxO677MxxRx7BmJ5eklS9GcrrNZoTCiQdVDuqjSznXXgRP/vFxZSqVekgXsYCbzzeyOZPGEPqHDaOaaeO07/zHf50718ol0pdyjKKZNQCmi7jEPGOQhQzZeONlFIIh7RRxIvz5vHY9OkUdEddoRsjRDmMzioxopXxEVhDrTHI7m/dhaMPOYTenh7SNBUQB590ptnVmyGPIJw7jjn/4p/zs19dTFwuYz3gXOaeNOoBEbez7N/unKNQLvLc3Ln85ndXZLbCSkC/ScRr1lrwdLg0pa/aw+R11800X9j6+bHpM3jppZcpxAUNdKhBuMQaWjuAglLeBu4j5bE2oj44yG47v4VjjjiCMb29smRCZJVfd3M5RKfLEbi+jSw/++WvOP+inxNXylnHlPB35tQR15wRvh4mBTvnMHGkPV0620rK8WaR0NAIQNIkYbVxY5m4xpoCczWuDPDY9BmkSg1QD0QA9pJJoAghz0JgKd/IJNX64AB77rYrXz30UHorFVzqlDOHThS0shiDHtkC2OOJ4ogLfvVLzrvwQkrligA1TNwN5dcQukHRHRyY+p33+dFriR9wuZfRC2jCcCraK+kkrDNxIn29PeK7NYbIWrwxPPnU0wJAbX4xqv6N0TijCiHcLEAEMJqbsdvb3sq0gw9hTLUXl6b4SEcRL7tsiTZGxxa5jkMWivz5by7lgosuxJbLAnrnsYGOiNGQoyphwJA/jPNYB5GTQIz3ui/MEj/k8i2jGNBkrWWsJU1SNpy8fgY2dBb0gtogs56fQ0FznyXfwWgwZslEzL2wzp0m52OJbMzgokH23HVXjj3sMHqrVVInKzMZzedQKxbvLahB5x3gJJp50aWX8YMLfkJUKhMZcNrpAn1CXYKq4pVqoWNDVytju9p6ySnV8i+jF9AypmJ0Nf5iIWbyeutl33nVavPmzWPuvLmSnRbcfCFpaAnbW2hGSGYyAiZrqQ0Ostfuu3HkwYfQU6mIAWgt0nW6wLNGO4N6M7wuY3Dxb37DeT/9KXGxhEX2k7RywyE+am+EqsjdtXMZfad8WjwgOg4t4fO9GWT0AlrHXa+5wdVqlUnrrJMZe6KlYc7zLzBQq2vCfBcYARxLIiE5X4hDpGBexDt235WjDz2YvmoXzEPPU6abeTOEFkRxzC+vuIJzf3I+FGM5L4vyhWionBc6os9ojsnoT6Auxnc9IJ7RuRXdsge0GiZ5A8VrdE9aOvd+SUSH06Ch+/r6WWXVVeQ7373eM7Nm0el0MFa8DAop0ZSvqsG0LMpZhSqEr0T7ybSpQfZ+x9s56uCvUC1VcAHM0pcy3i438vK/93gcNo745eVX8IPzzyMqFDHWCvfXu0unlA6kLENpR0YyMg1NeFUEe9XoKN8O9dt9H+o+e+m2w3Iuyx7QGfDCnwIrQ05TIsP4EokXgAigU/r7+iiXShpQETHGMHvOHAWjxXsrizeG77NfDheFvQkLWmpyvhqgVr0Ze++xO0d9+cv0VYQzEzSzejNQDWuMrDXtvcd5MQAvvepKvn/B+dioQGQicGEfdvWABM/FEkjg1eE6odzSedXDErT8q9CZ5V2WPaDVSPPe4FJHu9UGqy63oKF1eP13xHtPbAu8NHcuL89fIIaYlRkdLw8M8Lf776dcDlEzuWcwDF/9jkF1dZcbELpgMMYyODjIXu94O9MOOYSekrjmAphFw6r2M91rBTDHccylV/6B7/3g+5g4lp7unHSz4D4O/y8hoE24r45ARsvtAwXLOoyUKU9n5FmHX3H5k+UC0MYY2q0mW22+BdtstTWDtRomitSNKtpDQN89/pWIXldAxxELFi3inB/9mJlPP8PLCxfy6IwZfPOcc5n13HMUCgUcKZL4IA2J+qkXL8Hw8+DDSv4GayLqtTr77rkn0770JcrFIqmXnBGrI4KHbPa59xqiduBT8WZcfvUfOffH50FU0GT+oDHlPGP03vLVEknoSPJOc0q8x+Gx3pN02gp7HQU8cuPgiXkN9b6sZdmvD63h50WLFvKB976Pz37iU0w79jgenP4I1Z4evK5cJEB47eXIg97puZ12m7H9/fRWqwwMLGLRYJ1CoaDX7p5rTKYKFyte6YxoLvnM2IhGrcbeb9+dow4+hEqx+AoD0KA3CtpQIIZPHVEc8fvrr+Os734XolgXZHRYG2InodtoGYaV+bWIw2GdxVkHeKyzEFka9Qbbb7UFY8eO4/obb6Ta359RM4s8qLce48zyoAL/qSwXxfOak9xuNVltTB9fP/oott5sKrVaHRtFmWJYEg2dl9DuxWKRgVqNZ194gVqrTbFU7PLZIb/+59cXcAVD0GJsRK02wL57vZOjvnIwlUKB1KW6VFcXeZlWDq9ecpOjOOJ3117LWeecjYsjrI10S4wwQMn9CJ1I+fM/L+UrRRQUSo9sRiHSNGFM3ximHXwI++65F/XBAYiCN0iMSMLrci0eG8CxpCAZMVHK4YHISnBjzdUncOxRR7HVlCk0FNTD1WUG7NdQbuORpWk9FOMClUKZ2Mq6G5JXLKATr4Dqwex23foJIA63NOo7btZqvHvPPTnsoC9SKRYlnG3FuBRQhlwLuUYYvp1uFXf1TTfx3XPPxSltcaFM6sXI1LGWyWfeEfnqNR/BC2I0v0N6C9Ya0nabaqnIkQd/hf3/4z/o1OqAx2g6bSZe64BcnQz9xTIT74XaLVsJ6tEbnJf1izudNmuNX40Tjz6azaduxmC99grfrTEhWDAU6IsV/V291WKwVqPRquvmKgFo6tEyQesOOVnxFObwCTyMAmFgcIB999qTo770ZaqFIqlzEMl0J4YwF7mJEUyQqgF41Q03cPq3v0MCxDbSoI7w2K6RKrcdiUMeM/ikoy6wI+lwRWs57KCD+PiHDqDdaOKMl/1d8PI80hukhFr3r6EF3hAxxmOtasUl4adLQzwCKJClr5Kkw+rjV+PYI45gq802o96og65mZHxXQwfvx3AgBi1mlEOnacLuu+zM5z77KXbYbls6nY6eo8NqRiGG1YMaRN47TbA3+htLvV5nv3334dAvfpGigtlYmWkSLhWYslxbPBnBm/HHm27irHPOJjUeG8eSuhpuK31c9Lkaha/3kKcMGlvC6xJCl1IaY3BeRrLPffpT/O+nP41P2nSSFGMjqUjnIXg/gi3Rra1lKt577D/m3Eu5UMVJsu0yEKkO8cVKGYyxRFFMmqZMnDCBb0ybxtRNplAbFE0tjdM9WzrkUFCLphPN2m41+dD79+Oko6fx6f/6MKceexz/9f796bTbMvyG6/lXNo83Air5A1Ba0KjV2HfPPTnsoIOoFgo4L1lzYR19cYVpXjJynnHimoyiiBtvvY0zv/NdOs5TiGJIQ7K9lMGg3hb1OOSQ+O8fhICK+pyzJ/NaasRmAXya8skPfYiDDjwQA9muYFlVaKXJZb18uIzFeY8dbC/EGtHSy1S08aDLzay1pEmHCautxtenTWPbTadSr9VBKx2t0MBP84OMQRc0b7fZZPL6fOZjH5PNgVotynHMp//7o6y91lq0253u6KQjRF5kmA4NLksNDNYW8b5378uRX/oShTjONrIH+S1qbRuC71ZA6pyjUChy/S23cuq3v0XiPUUb41NBnPV5OhDej+QhPma5tiyFYL3BOqVTWvdSH4YkSfnge9/P0QcfTCm2tDotiCLxgmnaqtDwXMUvQzHGY4MhtuwKFcCU+0QNNLykXaZpwloTxnPcUUey+ZRNqdfrRFam9xttBDIPQugQkmXXbreZtO46VMslWReuEMuGPHFEqVySjYDyN1fw5Q2foNWsMTTrdd677z4c8vn/oxTJVC4xAIfVn+92MB8MwELMrX+6m2+eczZN47GlIs4YSbqPI+He4f3SOLLrW3wkLjsiA5HFWymsMVrviI2QJAnv2mMPjjn8CMb09dFuNaXupXIyZUKggej7TOW8kWKw+NyQuzyJlsvo2shpkrLmhPGceMxX2WqTKdTqg1ib935IBRqtZBM4NhL69t7LpFg1EL0mLRkN/3ovRmbeyyHKNXxuqA0M8v599uHwgw6iGCnNyMLZAgLxlIRGDu49j7UR19x4E8eedCILFi0k6XSo12u0GnWajTrNRpNmo7F0j2Zd39f1fZ1ms0G9UafTbkktejH+sALuKIpIkoTd3vIWvj7taFYfO452s6meJwE1BI4unWFZijnjVyf56y65n4ZvEWkew7IIrAwMDvDevd/FMYccIlOFTFdTYi3Gp6TOEUcF5jz/Asd+85v845GHqVYqQ/IzApk2alwuGhjkXW/fg69Pm4ZPdKa3NbQ7HT7z5S/z1NPP6B4qsgGlPGsXjGHkqtcb7Pcf7+GQ//f/KNpIVii1hkjrxqOMJd+/THcInz1nNt+/4HwW1RsUC0XZs0W/E8NMKMHSrOrsuTQ/wyKz4euNGttN3ZzPfupT3brMazmdaR4XYh6dPpMTzziDJ2Y9Q09PlTRNQTl5eOhX1MUbJM6nmDMvOclf+6vlE9AKLdC68V7mAUZRxAsvzeOrJ57Ig9MfpdrbC4lEFPMEIooiFi0aYJ937MHXj5qGS1KwMpS2FNBP66ZAzqU6YHnV2BZvJFWp0ajz/n325ZCDDqKgC9TYLJ85x+HDnUOfCKXXKKU3YKM463DhfJ97/0ZIVu5c/VqtL6FvQeQXAaCpd8RRxNPPPssJp53KwzNn0lvpwTnwSNpAphJ0xHojxfl0OfBD/1MJgzhZqqS1EWmasvpqq/L1o49my02n0gjejxwosqpULiwfKuXoOtOyJvXKHbsuFI/F0qo3eM8++3DIF75AIbi1dAHE4Ws051EimWpKV7ynWCxSKhQpWEshioijaMhrUV/fiCPcK9y7EEWy/p12zqDMwhIQBnmuyFo6acK6Eydy0rHHsu0WW1Kv1XQf8vDwiO8k3y/eQFE/zDK6+78UhV3gtuqFsNbSTjustfoETjjyKLbYeAr1RgMTeB3KBZE6zjRF8B4M6Sry/EZGYwGm8ulOq8XkdSbx+U9/hmIcy/7fOhQHIAcwB8Mo9Cqjflrv1c8b3i/HR6g374UCSaadPpfCJDIC6jXHT+CkY47hrW95C4P1QbyVyjZoZ1bq8UZL2Gh3+OfLiXRhBwFoUsFxJJp6rdXFUJy68SbUBwZyRlr3mbJRtKtE9AvR/F5QL6BWo8gYQ5J02P/972OV/v5sGwjtUxmwRePr3/nrh86R6wBhhFjcEb7PNORSOPL3Weyh5TRG692EB5EOqm+zuh/X38+xRx7BXm/fnVajjs1ALJ1iWaDKvqbQ8XIiBg1WaAVbY0nTlDXGr8bxRx3F9ttsQ6vVHsrdPEN0RXjnVV0b1SaiWbQjeJnlUqlU2HTTTfDeY40EdKTt1fA0XR3/ajIM4696hO+XpoR6CKRL7h1eX/FjeQnPa5Ba0vqxRiYe95RLHHv4Ebxrj3dQb9Zl5o+Cf5lp6GVx439HQkmDrxOt8CTpMHGN1Zk8aRKJuuKyc4zyYzmxCx4N5AhT6LJp48X7gDE452l3Ej1VaYlqH5/3e+c6ynDxuREiXHpxB7nXpXV4LyiTsLU+uxeYZ6NYKLf+LWUKz9z9UC4p7siX5r7ESy++IFmC+Wvk3i9tCZRJllAb/u1yJHkQe6P+ZQzOykMYb4jiAt/60Y/4zZVXUq2UJYzvBfTG+G6ORLD7QMLrJhoG5vBGgjKNZov7738AEziyhrO1LwzRa0YKKaLXCZWMUY6qM66FyEvvkr/D6BA64NI6wmSBUA596FC2HDCyUc0MfSz5razkGscxM595hiNPOJ6/PvQPyqWSTOJVeSNxFdrIisEy/OvlR7oMWsGsHdCkEolLDXzvvB9z6W8up1wqZ7VvTNflmO0IpV8a5XdxJF7kofiUBvbOUygWuea665m/cBFxHGV7gYcQMkZ+ri/dFlTQGO2AWVhZttjCu3A4WVnfOXzq5HUpHji5D85Bmrun97ILQA4Y3VFNOjLq2vNG6jMuxDw883GOO/EbzHzySao9vZoPFGpjCPFb6uKVAlqzPKMZ1cxBj2pZvZPcBG8M51xwPhdfdhmVnh5QdxzhAb1wvrBJpXBfaRRrLcViIaidoFQ1PdLgvaNULDBr9mzO/9nPcF68K92OERo+U8hDVFnwcmCkTEbvaSMrr8OPV/t8RI9I7yPbcGTvdZ6lzwHDZ96OodQqTUQzP/DwIxzz9RN4evazlHt6ZBJweHgF9RuJLK/bi5izLjvZX/2Lv9NajgMrYgzq0BxAbeCcH5/HLy+/nFKlImXUoRNvxNgxlnqjzvZbbc23TzkZK+sZqRFo+Moxx3DPffdRqVZIvZPkIHTlIgV+hKHTaPCB972fgz53oG4kr2F0FbURpVByere8CuZ581/mhblzKZdDZDM0vFaDUcqzFKtaOnNgOx5nNDU1cfT29LD2GmvgQ5Q2p5lDnTsnaa933Xcfp591FnMXzKdUKktyll7Xq5Yf9nhLXZxzRLHFfOuyk/3VP/87TZY/QCuCdayT9ECjFXzOT3/KJZdeSqnSq77SMPfQZq49Yy3NZpMpG2zIOWd8k3KxqHxagiJfPeUUbrztdnqqPSQ+wSAWujEpYeqrRfh2s1bjg/vvx0Gf/SyxlalVJrIC3pBV6eQE7+S58oB+Ye6LfP3U05j+5JMSrk+DRuvmO78xgM5RIOPFVhio8ba3vIWvH320djb53ioundKSOI65489/5uSzzmBRvU6pWM5C5UafQy7c7QxL83Hy4r3XfZcEBculGHRI97osFgas5dzzL+CXl11GqdqjraRaGzECRVvKQ9ooYmBggEarhdeFD713eKCnt0+4Zc4VF1CVtQ3SQOWeKr++4gq+88MfkehsFZ9KknxIhHJBMSlA0YXLnfesMWF1DjvkECZMmMAL8+Yx2OmwqNlioFFnsNGkVm8y2GgyWF+KR6PBYL3FYL3BQKPBokaLWkPK0Gp38AEY6s4MtAMF87U338yJp53OYKNFsdQFM0YNTf29UJasGd8wMUaz7d6wbvQaJVSM1yEMJ5rZ4TnnvPO4+PLLqVQq+olTX7KVSamIn1o6goSpBwcHpcG8hzTNhtV6q6nPriHe4OYwYnlaNUADG6xUe/jNlX/gOz/4Pu1U8ga88mipRymwN2hmn5xp1ZBaf+JETvnasWyy4YY0W03iQkwURUTWEkW2+7q0Dr1+nP1tKBiLiWWZMemDoo2DpeC9J4pjfnftNZz+3e/QSDsUCkV8InUi1ackLtgp2qmXBay6ywQtR2JCbRiDSbVyI8P3f3IBv7z0MirlKmhlQ3CliSYJA52cboiM7Kz61FNPY60ljgrEhSJPzJrF3/9+f7Y3iZIDbaKQDK8qFxkhvPdUq1V+e8UVfPf7PyBRzR5W/ZehPIwQgmyvf1udVrbuxLU57sgj2WjtdWjWG/jI4nSUkXEjG3Dk3iN4+OHXpKuBwz29l2fyTuyWKIr49e/+wFnfO1uyHeNY6FJwNyKjotR6F8Shj7/R0t3aejkS74W3hxnZxlq+9+Mf84vLfkOpp0d0hxcAKu6H8c9AVUTbJnjOveDH3Hz7HTwzZw633HUXJ5x+GgsWLCCOosxP3SUa0kEynzEoORY+Wenp4/Kr/sAZ55xD4mQricDNPeqq05A4RhrcEHKLO2wwaRInHnMM602cSL3RyLLcMuM3dIo8OkbgMHqtwNnlQ/kyiyIai9NBKooifnbxrzj7Rz/ExAVMFCtFC0uXyTWzzpAD8ZDmeAPFZtpgWUl2/y4XNmqIgPiZv3/BBfz6t5dTrlRBYnQyrCuE5KTQcnKFoKu998SFAk888wzHn34aXzjyMI4/7VRmPPU0xVIR79W3rFQldPDgCelSEfkUDM47yj29/O6qq/nW939AO5HopFdqhLq6srB6znUXRTFpkrLepHU44atHs/5aa9NsNCStNNOQSmUUMQLykRCBnEHZUTaiaeeFrHN74IcXXsSPLvoZUbEgGXVBiXiZYBYaIRiZQ1tg2cgy19DBMvbITBIUhFb9tude8BN+fulllMo9SgEcnhQC1X2V8uf968Z5SoUiJo6YPzCAMRGVuKT9R++Zgah7Dfnca+qqUhJVb855KtUql1/5B84691ydvWJUg+nYobQlzIbxCggbGZKkzUbrrsuJRx/NWquvQb3RwGpiVQB1OCfw0tcvAjmvAM7KpMlI3nsiXVb47B/9mJ9e/AuiamVIp7LeyBZzuUSx7ii27GWZ50Nn/MtrVevQmxrD2eefzyW/+Q2ValV8w7KptVB/Q5ab8C/FBM1jKRakgZxxknDkyYIHouRV5wdkqz8cA0bXvpMPRNtVenr5/R//yDfPPZdG0sFai090SzU8LhhYWefxgGjqJEnYcPJkvnHMV1l3jdVpNurYsFSDduwuDRkpTa1a1kXC8Y0hci7bpqPRaXP62d/jkisup1KtEkll6HglBfPisM/JSHW41y/LXkNnETUNDSP+3R9ecAG/uPRSypWKNEIYwoO2QzXEv3iAAAyUZzfrddJ2m7TdlLlxqpFQDA/HTIg2Ci+WI/Qi7yWEXempcsWVf+Db555LxyU5Tq2aFi1IPn3Td+frbbL++hyvmrrVaMq6dnr/QKlGRlNLhxLaIGXwRrxIhWKRZqfDqWd9i9//8Y+Uq1UZKZysReJ1hBLNHg59ltdbrBGUaJ8Pv/P4Gfc/T0JKmLsc+J5BOdJSLLH3EEWWVrPJplOmsOtbduacH/+YX/32N7qhJOo3Vt6mw5y0rZR28TWa565q0CUJu++yC5844ADe9padGRysMfvZ2cQF4a9GtbVV8IFQjvC5tH44VLyUoVQq8Y9//IMXX3qJHXfaiaIVYzPUYwCm1dEgzE421uKSDhPGj2fzzTfnL3/9K/MXLqRQKuZ6V5eyvC5Qq4tROqk8sMGTOscqY8dy3wMPcO0N19PT14fTe8v9wqFUKrNRAgdfPkBtrCHa94B3Hj99GQIarbROp8P6k9fn8Sef4qJf/ZJitSc39Acfp5SlW8kMBVdOAoDAYGxEs1HnHbvtznFHHcnGkyez4eTJ7LzTjtz/0EM8//wLxMWC6i45JxtmVQsZVBkpEKRXBeNIcF0oFnn40UeZN38BO2yzLYU4wqdhNSWjVDNcS2Au9Mng0pTVV1uNzTbbjL/+9W8sGhggLhRk1Mo9okEK8u+BO9eehsyzEccxL700j8effIJiTwV12MjjhdOy0SX8rWBfjjT0cgJoQUMcx7zw4ov87W9/xxZ1VVBdRlYKJYB+rRL0tgkRaQ9f+N8DmbTmmnTaHdLE0VOtYG3ErXfcSaEka3QYD94acf/k8jXyEvzTBr0RXS5fLJX4x8MPM3feS7xlhx2J40i8HzpFSU4MINDrGyPusjRljfHj2XTTTfnzPfewqDYoy/3meNAQTe3/NeUaItqWQhtCu8r53sieLvJH6HAyMhkvZQxFX17FWCO76i5LkUFPaqreaMpiKEaGd6v82vuw2Mtrl1Dv2RDrPUlHooXWWqJYMufWmbg2pbJuVRE0cUYxhl1URZiHZqKFFtbfO+ep9vRw9fXXcfp3vkOj3cFGNlsdSTpB8JwomPSaIfiyxZRNOP7oaay66qq0Wi1df0TvHXzcSwpmVHcgdkjI6/bqkZF2AJwossCZhaYEcA+/4PIny9woDJrAGEMUWYwm+hi8LLKtQ90SV6Y+mEE4er3VYsaTT+mXql6NYdWxqzC2r5/EpRiv04fQfOBXATTkrm+8BBqMz6iIc45KtZerrr+Ob579PZqdjhiKqdPr6m/VsyLPqxpGDcWtNtuM4484nNXGjqXdamHCLl1qIKPgDsdrkqCVA1Pw0tkzqqWGLwp6Nb0z5bCkTbAsZNkDWjWN+I21MkNyjBHgGZaMboA2jjY6HuIoZvr0GdJBrPBW4z3jxo1ltVVWIU0TbUxtbT+Uu+bFIECQ15zGzIn3jp7eXq69/jpOPessGkmbKIpkvxUTAjZqXIVOq59ZXf5sm6mbc+y0aYzt76fTamPjOGP5WTkCt/13JADbqH2iI074W8rVrYZ/8y5vqCzzSGHQWOILHnoErurlvyWUYPJItltciJj17LPUGo0MgM57KuUSa625Ji5E+zRrzPwTDS3dTsxOj1Hs55tbKJNo6h6uu+kmTvvOt6m1mkS6UA1eNHSmZcMV1fdsjCVJ2mw7dSrHHXUE48aMod1qy7K2WTm6lOzflXCm9vswcMjn+fe53y7PsuwDK6gmkJchh3yoYHkd6sHjiaKYefPnMeeFF3KAlo1z1l1nHe042qhoC7/KPTPNmCtzVs5s+JYPnYdyby/X3Hgzp3372zQ7bfEzaworCiICC9IInDGGyMqSwttvuRXHHnEE/dUKSXsYpw6vGuWUztH9Lk9LFneER8w0caj/4e9DvSznsswpxxsiHqIoZtHAAE899ZRqNNWzBjbeeCNJFc04pABzSTVS4KLByBWrSxL+e3p6uf6WWzj5rLOoNTUhyeU4dKAgOlKhhqk1Yihuv9WWHDftKMb09oqmNjLroQvILm3IA1DoSKARrzxGk3gv0YpRKaGthDoIcJIkYcYTT+QAJEbgxhtuyPjVVqOTyKyVoKeXuLlznFiCFgAG7x3OpVR7erj+5pv45ne/S63VwkYWl4ihmCXIq0stOEGMkb1nOkmHHbfehqMPP4y+nippIrvfghR3iObV4gQNjRqS4SCnuUeLeKWJoxbQfgiYZQ6fiSIemTFD/NJGAO2cY/VVV2GzKVNotjpgXjmcv1YxwX/rkUR5GxYwlMp2zlHt7eeam27i5DPPoN5uEen2bepZVA6r3h11rRlriXVHg5233Y5jDj+UaqlEu92RlVkNWScECNycVxiq6DPnPl/Sh1zOZdQCOgBDRm/hzMVikccff5xZc2ZLyFnnynnv2WLqVA1H56+yZK3tUTCB0gYhICbnBXHO0dvTy8233sopZ5zJYLNOFFmJKKpKFjCrlyfkuqj/PEkSdtl+B44+4gj6KxXSToLXSCRKdRZLKTTFIEk6GTWBbh94s4vRWUHLPLCy1ER9rEIdBBRxocC8+fN54KF/ZOAL4/rmm0yhr6dHFkHP6MaStbbQ1cBl9e+hvwBkSeBKbx/X33IzJ3/rW9SbLaIokqUAdGaMlE+vQyDaklKbJh123WEHjjr0EMqFAklHsvxgGPXIaWgbWRr1OhPXXIMPfuA/abfbOoJlP3lTS1AarxLcHQUiWNb28pkHwFjLgw8/LHxLwYf3bLjeeqy9xhq0k5acZ/g3zMJXSqAOIVMQZwAZHXr6+rnpttv5xhkyizq2YiiKq6zbEfVCYrRayU1Jk5TddtqJaYcdSm+xSNIWQ9EspsjWWNrNFquNHctXDz2cHbfehmarpZmGw3/95hSfcehR8kCvJtJhlcN6QxwXmDHzcRY1Gpn7yznJ69h6yy1ptdsCGp/zV70OEdqjIDXiuRBaLTNcenp7uen2Wzn1rLMYbDSwsZVJvKiBGELUXsPT3oOxmMiQJh3evvPOHPaVL1MqlWRdv2EqyhhLu91hzNgxHDvtq0zdeCOag4OSt+2HU6w3rwQKtVxOkh1pCf4G7x1xocCsOXN48ulZ+CwBX4C3265vo7dckRA1S54/slgJvBj1fBhN/tcRwDlHT28fN912O1//5ukMNBtEcYRLHHjNtdCQN8huW1lIOopI0oR3vm1Xjjr4YIrWkCYJ6Ox3ayPanRarjOnn+GnT2H7LzXHOYaLRo5mHy6g1CgWl8mJCkhMeG0cMDta4/wFdhBFJCgLYbOON2WSDDTJ+ORLLpBnU0REoQy5BPhTSOU9PXy+3/elOTjr9mywaHBRQ67xKCYkHayC8F+0blhR+51vfypFf+QqluECaJBTimHazySr9/XztyCPZfvPNsy3sJPFIRq3RJqOeQxtUy8kqXeItiCLuufdesYoB71JcklIuFJgwfny2O1aWSfc6RNmFeD+yoImEyzNC5BXUvb3cescdnHTGGQxq8MV5cf15J51PaIeWLfBGK2s177X77hz6pS9RspbGwACrjhvLCdOOZvsttyDp6ILtOlqMRjCDznkclaKABs0X0T+995TKJR6dMZ1Hp8+UhV6imKgQ8/xL85g+cybFYnGIh+D1KOqsGEY8JyZXruw3BtXUUO3r47a77ub4005j4eAAkY1IU6EaXc4rdCjzUhiDsYY0SXnXHrtz8EEHMWnNNTj68MPYZvPNSZMEG+kSabzy/qNJoncf8M7jH/v7skzwX0oS2k4eSOmFEf4ZGdqdhBmPz6B/3DgSPHPmPMd3f/BDHpk5k2KpJFazXmZpaDPzCn+xFNg5KJXLPP7EEzz97DPssP2OVHWDUGkTLytEGeFTStGza3rv2XD9Ddhj993ZaL3JpGFjUGPwTujVrNlzuPamm2Q7u1FkGHo85nu/P9n//oJluFjjUhaf08wZQhGkd9ptbGTp7+3FtRMW1RtEpSJW17uTn0m+cOjW4XqvV/IjgPwtdwi1bSPL4OAi3rrTThx/5JH09/SQpqJpQTwlQmWkxaRkwRcN1hrStKOeHCvhd++Jo4g777mXg792DP19fZrOOqQob1p5E2zr9vpliJbVBCCQVi+VSlgbMTBQo95uUygVdT2QOAcOQU4wEEfCUASlCYF/aOQuUA9jPc6l9Pb28ac//5kTTjud+YsGiKIY1xHwetTYzLqYPFfQ2M45fQ71gedHmVEC4MXJqAc0ufYzJs9DZakBoxtO2ijCe0erUadeH8S7VDPaBD75vO2RkHyZxEgLiUkhwqcuvb4+7vzz3Xzj9G+ycHCQqBDjUulUgRYZTYQKlMOooRjojFdDaWRKvjzLKM62W5wITBSYwrhksDZI9lqass0WW7DbLjvTWynTbjZAXXs+81KMjIYOV/FeO0yY0NCFuoA6FU19171/5oRTT+XlRYvE+xHWy9CoYljfJIA6f2SDUrj5KBXvQ7bdaH9SlQwuweCFbLZ1f08PRx58KGd+4xuccuyxnHTssUyauDZpR3y3oPnSQy/5b8srNbR8GOhB0LrodtCV3j7+dO+9nHj6N3l5oYBaAjQC6qCNhWIMNziH3nO0ijEWiwRZh383aiXwTuMl4BIZQ7vR5P3veQ/7vH13WSAmabPVZpvxqf/+OKT6W43VLW2REHf3VQYU4dQ9vX3c/Zd7Of6003hu3jz9TvcayMKab0Qpl0+xxmATJ1GxkRpKl3cROql5xgpsj2f9yZNxzuHSFIslTR1v2X571pu0DolG2AhwWYpV1Q3CBHoknQnN0uvp7+e2P93BH666Stfm8/mxZwXQw68u3nvsxN4pdNIWNlsmZ3SLUTwKblIJAxvDw489KoZUZGRtEDz91Sr77r0XrU4zS/oxWaeQhKORFhkNJH9D6EPO02IMAwsX8p693sUH3vteycsIXGUplOXNJsYY7OrVdUlcVwONevHq6c0ZUKVSidtuv4MXX54nu6Hqd8579t5zT9Zfdz06zZZw0qDVdRmDkRbxL4uL0XonRqs1YD3NwUH22+fdHH3oIaw2bhx4XStPgywrhRWPcohBqMaUar9CQfYjvO6mm6RjK+hdkrJqfz97v/3tdDTfWDwKXiyPsPTuCIpcT8cRL+X1xtNuNjhg/w9w+Je+SE+5TJrIRIRXdKyRLtCbTGzwta4wGjpw09zjei8LLf7+qquZu2ABVqdnyWJFnnfvtRdrrD6BTkdnW4cR3mvEjpEDkhH1D0aWFcY5XLPJZz/+Sb70/z5HBJLbEXY00gJIzrW6I4e57RZ3iIxQoZcjWTGIc15CY+ZGJO8chWKJWXPmcP1NN2cjltE9rdcYP57999ufVruTC0574dHqXhupJC8J3Ei+RqvTAec46MDP8emPfISk3ck2uRwC3jBt6zUe4dlDwGU0yYoH6KCctS2NOILxeKJCgauuvZYFtZossOilhrz3/Mfee7HhupNotds6KVWrzovbM/OavV7xHoPFuZT+3irTDj+cD++3HwBxsUBckC3Yoki2NLb2tW2rHEURhUIBay2FUjnrsKNNSZub77zDH3vKKdhCUS3s0ZWc9K9EGlY0stU9DT9/4Gf55H99EJck+NhCKtub/eHaaznlrLMo9fbpBkHdjSfFCzH86ksuoTydTpsNN5jMW3fciWatIUuIhU4YEpOWUCM57ykWijw9eza33HknxWJRefrwX755ZQUEdGhBn0XYvA7B1lra7RZrjJ/AOWecwfhx43Q7ZjEUnYGjjz+BO+69h1K1qht4SoDGhQkEr1Nc0PbGkKQd2s2WpPUaQ6rGrM0BeklbxntZFq1YKsloMBK9cDmSkWiDN5mEBuyGhcOrc45iscys2XO48vrr5XNNYPLeE1vLJz/+3/T3VHGpzt3zXcNsJETyOYTrxrZIb88Yqj19VCq9VKv9VKt9VKp9VPWoLNHRS7Wnn1KprDx69PmvV0BAL14CML1zFEtlfvuH3/PUnNmyXJeXbSXSNGXqRhvxsQ99mKShmjNz442MBJeiCf3ESR6z9x7jHCZ1snXcv3ukuvJpuNcok5WAVgla2ntPMY558aW5XHLppUJJhCJjMKTO8eEPfICdd9qJZqMpG1KOoKbz6DIHGJxxeCMz0J2RHVy9LjEmGynr36/58DgrrxK7Geq+HA2yEtAqIdQMsgZdT6WHG265jfsffkS2T04d6MaaxThm7z33FByLQh05YOSAJh6YboK+fC6jgpB3iSguyWHC+xHshMuTrAR0kIBKIy48Yy2DjQbn/fRnNFotmR7vPXhHmqb09fbKrquayzxS0s3l0PeaFTj079yRw/aSHOLrHn73N7+sBLSK5EMISryB1DnKPVX+9sDf+f011xJFEXins8QjHnnsUZJOB1SD5gM1r0ekb2hYftgh2nvYoX6bJT2k24w+WQnoIF61tA9/CEajUokLL76Ya268EWcttXab319zDb/7w5UUdXNMYSshj1mPAJ78+9dwkA+l+xCwkYuKe9HnChxI0pIf4dzRJiugH/rVxOG9laW6nIzL3suusi7tEAGbbTaVVrvFo9OnY6wliuIhkyOE2+of4WOTQ+q/VY96Xnad3DX/ncuNclmpoVUCD5bXrvbz3mOjGB/F/OX+B3jo0elEpRI2junukqLXEKWK97LIqNO/w7zFoF//6RF+Z4QGDV/dP2T4LY1Mv9EgKwGtErSrQVYhwshyAsZ2+Wu1WqFSkQgbGmXreiLknNAZPGq1ocMe8r1/hVU37FDgSk/wmGx5XY/3uv5GxmtCwtHwp1lxZSWgg5gQchavRbbAo9fZI97jXapL3SrwFUkZJ/UKbjyxk51wDbJ3nvWyNG7Y3FNeX3ngLdYFK1Cax3qwGKKwMai67kKHypb4WikrAZ2JVwx5JHkfFKpySEq/HkFjIpTkFUe4gvdyrrF4Gzb8tLLZz3A/mjGyX4q18hpF+EjO81Z80Kkanvjh9w4GaU5jh9vr78MzZjxllPaBlYAOouFmcc4G+iFQRiEaECEaOYA9fwlDZKxED2PJjku8o9Pp0Gy0qNdr1GoLGRxcRKMxSKMxSLNZo9moyd/1Aer1RdQGF1GrLaTZqNFstWgnHdmuwsgGQlYXkdFxoovO4FhWjW0Uy8LLc0j24pocjVxlpZcjiFcg+JxHIXjxwh/Z/wEI3QQn5z1pJyFJU9mMCEe5WKRaqTKmt5dVVlmVVcb009vbQ0+1h3K5TLFUJLIyIdc5T7vTod1q0Ww2qTfqDAwOsmDhIuYtWECtXqfWqMvOV8jKSFEUERcidDUKdeuJeC+NacJDZM+iJc896miSlYBWCZD1qOYyQLamXU4L2qAVDalLaXfauDShXCyx6rhxrLnWGkxca23WW3tt1lxzTdZaY03GjRtLT7WHSrE47K7/XFLvFdxN5r38Ms+/+AJznn+eWbNnM3vOHOY8/zzzXp5Po9XCWEOhWCC2kYw2XpY6w2jOduiMOXAb6Gr1USIrAR1EkDxEBxvNmcaQzSVM05ROuwPe09fbx3rrrM0Wm2/OFlOnMnndSUxYZRXKxdLwq4NqTdGi3fv8M7HdOPUrpNnp8NL8+Tz9zDM8/OhjPPDQQzz59FMsWLgI5x1xoUgUF8Rg1H0QMyMBcp20+/oqt3pTyUpAq3jvdaHE7vQqgxO3nYd2p0PSaTO2v5/NpmzCdltvzZabb85GkyZTKecA7GWRRZdLnh/+uqTi1MsCcn2xH0UTB+m0E2bNfpaHHn2Evz7wAH//x0O8MPdFrIkoFUuaButJvRhO1nic7ps7mmTUAnq4HhIgiIci+1z8dGIkqYUsA7QYdt452s0mNo5Yb+2JvGWH7dlt113ZdKMNiXML86Rp2lV2YW26YVAxwUOxJJKbHia+k+B/cUIpkAkIADaKMnx7YNZzc7jr7j9z+913M336TAbrdQqlAlGxgHd5F0hOQ2dnZ7UmPNujnSd8t/zKqAX0YsUL4OSt+gdyQDd4nYXiaTYalAoR22yxFXu9853stN22rDp2rJzrvKy6lPmCNesuV00Wk0USLWESwBLWoxp6xsi1wjWHw8qoFvea+2F0OV2ARrvNw488yo233srtf7qTefMXEJeKFAoF3SI5HF168+aA7uJl1AJ6uP4RxAZrSF1vQfMEUAONZpNyqch2W2/De/bem1122IFSHAPgklSAFfzImV4LGj6vhfOQUO26xNUowZguhIfDTP4e4jdXl1wAayz8BIBHn3ySa2+8kdvuuIPZz79AqVQijmOcS+Vsfaa8tyR/2y7cl18Z9YDOWkOnSXk0Cmc0NGJkcmzSauGdZ5sttuCAD+zPjjvsKGAA0iTB2O6QLhJamty4LFFFyb+w8l77TPa7rGT590HyoA0oUqiGj4PTwnSv5/Xv4Vf0IGXQckSRbDQ667nn+N0fruSPN93IvEULKZXLREQ66VduFPYaz1o/W6tk+cbC6AW0tqwq4Awg3SaSadouTWk1Gmy0wQZ8aL/92XP33amUitlcvjB05xsyg5wPPDz87TFGFiIHq87eADzVfHpyXgvmgTgcMEbLCXodLbp4X0JJ9H/9M38FeXS5urjxvPq+4ZHHH+fXV1zOLbfdQbvToVwpd/dGDNfMFU6KtnxjYdQCOkg3QhaMK2mYyFiajSY91Qrv2ftdfPSD/8X4cePw6qVA9wJfrIRGzjpLt5k9kl7X5eRGN/p5HeLRFfu1Oyrd9aZLN4zJOZe7faVbVF180mR82xFHQqVuv+tuLvzVxfxj+nQKpTI2ssheQrkV8Y1EYl6tSpYXGR2ADlEvbci82RScU0owJGzsHM16nS2nTuV/PvVpdthyCwBZANHaf9logTdDV+sOGdaHnd/stKnVasxfNMCCBQsYGBigXq/TarXEQ2IM1hpKxRLlUolKTw99vb2MHdNPf28v1UqVovL4TLyXeY5I5zPW5vw03QIYpAd76WHS2QzaS+Q6No5YUBvkkt9ezmVX/I56s06pXBWN7lEa4jIrITOos4Suf1Fhb6CMDkDnJFS3dwpq6zAuks9jQ6fVpmQt+/3Hf/DxjxzAmN4+AbKqPRPCxQzBRbi4VpAuSO4dPvVEcZz9ttVJeP7FF3lq9iyefuYZnn32WZ5/4UXmzn2RgcEazXaHdqdN0kl0JNDeiMxjjKOIuFCgWChQKhUY09fPaquuyuoTVmfi2mszae2JTJw4kTUmjKeaizw6l6rd283Cyxc5+yP8PtSTdzjniLXD/PWBB/nBBefz0KOPUq5UBbhendcK3q7pO7yClr2MDkAvRkN3y+zx6ldu1musMWECXzjwf3nH294KOJIkxZoIYy1eLS5Djojm2y7HRbsJQjBQrzPzySe47/4HuP+hB3lm1iwWLhqk3W7L4orWEsUxkRUX33DQ5ccUr9re6b6CPuSGOIc1lmKhQF9fHxPXWoupm05h6622ZOMNNmS8uhSlfPocpjuWCBZzhp0+i6f7XD71RIWI+QMD/OjCn3HlH6+RNfTiGJfqKlEghjVkNkL3OZa9jA5Aq8Y02nIeJMIXGswamrUaO261NQd//gtMXneS7Odt5RkFv/KswfDqGpJeNxZKZJJsXAAMnTTlHw8/wp/+ch9/e+DvPPX00wzUa2ANhUKR2EYSnJErDwFOVyT1U+6xuDoOZeuKc6JRO50OaZpSLpdZa6212WrKFHbcdju22XpLxvX1yW+TRK6h6ad6xe71jAHvtITIOh/OEUUFPHDlddfx/fPPY/5gjWpZDEbx3MgGrYFyeB3ZlgcZFYD2OQ1tnAdrZLUjjea1mnX23XNPvvJ/n6evWiVJEqxqyyDSIAIu7QaAbCfsdLY3wMJFi7jrvr9y3c03c/+DD9CoN7E2plCUlT0xEnhBbbRMn/mApO5aeuTuO/Qzqe+umyw7WWlF9zcC7gSXdChEMZPXXZc9dt2Vt+3yFtZfdz0sMoPdeOmYOTRrR9LRwVu8caIQHHhkgcp777+fb519Dk/PfpZytULq5DcyigUNHa637GVUABovZMEGJWjAWINLU9Ik4ZMHHMCnPvpRYhuRJAlRFJ5HQC1Tm+RvAY8YVs7JwoYA8xcNcM11N3DdTTfw+DNP0UkdxUqZyFiM13yLrCOE4b17xe6boTZUGAnyGjobHTJqkDs5L+FZjQR6vHd0Wm1cmrLqqquww3bb8b5938XWm04FJDDkrfzeeoOzEkIP1zJWwAyiuRPvKMQxs+Y8zylnncFfH3qQSm8vOCdJfKZrIo4KDR2YXzdSNbT1ugwu/J+/ztBPhjeXCf/lvgh1D10X7xDxUslGs+Ii7znw05/hI/vvh3dOAGaNrqPRpRbGCCCDN8TpLrKRtSys17nxxhu5/JprmPHEE8RRTKlQkMYMVEdBKIlMgWR0ZWQbOwA81L/UdLifMZKll3YSWq0WY3t72G2Xt/L+97yHqZtsAkCSJpkvWnqEPoBe1+DRQSYbnV5euJDTvvNtbr3zT1R6e3Q54a50m6r7aXBbZn+/SkXkR6fsffhtpqHC+y44Fmecvi5AZ3U7pPXyX3d/MOQKCrwgr/agixV1jw39qPuJMVY2efeegz9/EO/bZ+/Mi2E0l7nbdPIm04g6hEdRhAfuuOceLvzlxTzy6GP4OKZYlDryMiYrmEO3lfPDCvz5MPgSPN1rku7zDq18eSdRPmPFj54kKc1Wi/6+Ht699958ZL/9WX38+MzfLgvohEsNv5b8n6YpcVyg1mhyxne/xx9vulE1tYTMQdoz/5xGjV4xcDUDUY9QfmMMkbXYKNI91nWbOq/1GbQNWrbsPaBRTIbV7+sCtNw0XFEHn26d5M5TaBujDx4moDq8E42YOk27CcEPvUL2v1XPgBXNadVbAMJZnQcTGdKkQ8FYDv7iF/mPd75Tfct6bn4sCXGIoKFTeXhrLc8+/wIX/uIX3HjbbTQ6HYqVcsbPPfI7jwDa6jP78JnWoc0HXRZffSMjIdgS2iJ8nN3TgjWkLqFVb7DhOpP4yIc+xL577yX7tSSpBJB02zo8eOVueb+Pd8Kpm602p3z321xz4w309vTLxGFtaWMNzkOaJiSdhDRNiOOIYqFIT6VCf38/lUqFYrFIZC3NZpOBgQHmL1xIs9Wk1e5gI0scFyjEMUb3uskA4b0U0BhBV75ja/FfH6A1b8H4bg6D3F2GboO0ptWe2tGHdGlKFEWUi0V6qlV6e3oplUqUK2XK5RJRFMuw6RxpIpXTbLdotFrUaoMM1mq0mi2SVHIs4rhAXCySpgk+6XDw57/A/vvuS5qGxlLjL+vloeNI/ppzKdbGGGO4/tY7+PHPfsqsZ5+l0lMVAzO4wRQoZljHJUdd8pKr7qUi2fW1Q2UfGnkTFAfqqTEYmWHjHHvuthv/89//zaS111ZuLQEoY9Rnn9OG8jfiurOGVrvDKd86k+tuvY3enh6c86SpUJzIFhi/yqpMnLgW602axHqT1mHSOhMZP24Vent6KFfKujVGRLvdZmBwgJcXLODZOXOY+cSTzHzqCZ5+ehZz571M0ulQLJWIYtlqLyi8DI+5ig2fvS5A48AZL9P19bcgwx3G0HEpnU6CTxKKhZhVxo5l0sS12XC9yUyatC5rr7Um48aOo6enh55KlWKhQJTz73pkfWTvPUma0mg2GazVmL9gPs8+N4cnnnqCx2Y8ztOzZrFgYBGkji9+7nMcsN/+avwJdcAYrPc4fUWNGe+EPkRRxMJ6nR9d8BOuvOZaPLJ3oYwaGnnTIdWDdl6pAkM35DwM42+M5JQKyLN2CyQjl5XNtACIrMUDjVqNiWutyf8d+FnesctbJR3WeYyNxTI03ahgNuxoCN7GlkX1BseffDJ3/PkuCsUiY/r72XrzLdl1p53YdONNWWP18VRKrzLlzOt/wzUAkCQpz780l388+ih/uutu7vv7/cxbuICoEFMolgTYTtdM0UxEw5Jo6O6AhjHSW7uWEOoRiKQCrfSgpNOh0+nQW+1hg/Ums/mmU9hsyiZsvMEGrD5hwivDuK8m/+TBgzTbbZ59bg733X8/PnV8aP/9u0GA3Hkml8sAOro4RxTHTH/yKb79/XP56/0PUOmpEhnVytpJxesaYKIjUaYJc1WRk/xnr176EZJQllwhgpYdanABxmOQQFK73SQy8JH//E8+89GPUSwUlIJYaWK9ZtZ59VLOOaI4Yu68+Zx19ndYa+La7PWOd7LJ5PW7z+o1epk9v2Am1yJSylC8kDpghSIFmf7kU9xy+x3cctttPDVrFoVSibgQk7p0KL0NO/2+AtAeUuOUGxodirRBs+QUbVovQxEmwnlHu9UmwjNxrbXYYfsd2OOtb2XKhhtSHTJFCSkMKGA0Q8DIM76C++fbSp9eDAePwWLjoYk/WQMaudiQRg3aWY2UOI65+6/3cfq3v8Pzc+dS7qnKb53r1rxeJ2uNf96/lksJdZoB2slsFxPJCNiu13j723bjkC8exKpjx5J0xAtibNf7k4W+VVt7jZam3umywuBTnXoWFoG3qDIMiiS0ZLcCszJl4HQyCccbJO1crv3iS/O44g9XctV11/LS/JcpVXvkWsHTpI3ySkCrqwaNomUqHTInvKCvy7OajSaFKGbrLbdg7z32YIfttmXCqqtqgQU8GTiD9avFH6Ls/DAA6a+677riw2cKbmk06XB5zdwVL7NRNIwcxTG/v/56zv7+D2m22xRKJVyadtUQUpbMTsil/rzO3Lk3VKReuhHJ7hehj4ovvlars+XUjTn60ENZb+11RFPHkdRtrp3osg+cF8UXFIZHFre0wbdvxJYKsGYImgL1Uyxlr1LHOMGXc0KF4kIBgBlPPsGFl1zCTbffRhQVKcSirbM031cAeriGziiHUVeJFNBaS7vZILaW7Tbfkve+ex922XnnjE6kaXcWxGIBNgS4yMOEXAP5Qa4B5H14+O7fenaO5g05Lf87NW68F2v9V1dcwffPvwCsJQ5GR2ix7Mw8tepee3GP86aRQCE8OZ+PpLjWajU2WHcSxx8xjY3WX4+kk2AjDT5hsu4s4e9QMYIP8XB06y53u+yzbut127ArgrGhzoWuSOafKKIUz+VXXsnPfnEx8xctolgSbm2MeTVAp0Teyk0yjRV4tETg2q0mUzbckI9+6MPstvNbKBUKWVJ8APFigRxkyDioH+n1vaKz25e7/br744CsHKcf9nWoFHkrVMLGMb+47FJ++JOfEBVK2EjXryAANdzzFZd800t3eA/KaWj9WxvRaDRYe8J4TvjqV9lso43EuLYRXqOI1qqbcljH9qqQ5L3UnZrTQ0At3+kvvAKOoP67EnDgjeRkey2/dxJTsNbywKOPcub3vscTs56hEIsGf+XoKc8qF9MLOcVMZA2tRoO+SoXPfOzjnPGNk9hrt10pRjFJkuBDvnF4MB/WWht6kHtIjCbO5KiICT5j/X3+fXaNjBuLnhn+vSFX604MQBvH/PqKK/jhT36KLZY0PK4GsDGyRlw4P/f84RhS7jehGIN6o9AFKYc+TZqmVKoVnn3xBY4/7VQee+IJmXPoXUZHvZftirwNU7TkFf0Or14gfUXrEi/eCZzDuS4NxRsBqpFyOcWD98H4zuPGy1Q4DJ1OwpZTpjDtsMMpFUtCkzNA559LL46xGWeWXulo1mpsM3Uqp3z96xz48Y+x6tgxpB2xZKM4znHtxeu28KnPGWtSCZ40TUnTVPIv9PDKv1N13clDhd7arcRw3fyrYF0qxOlQdfUNN3Du+edjC0Wwsk6FdAw9T/m3CR1MrxWO/D3etKKDmdH/TNCOan8kaUq5p4dn5szhhFNO4dnnXiCKIpI0zYDiCUoPVTZaLwa8CcEYaa/UObFNnM+igVEWHDOiKVOPT1JIPVYTqUA6xPA2CBso2SjCOceEVVahWChmsQJl0nmNKYUNvDmKLGmnjU0dn/jIRzj1hOPZYuONSJMUn3pspPm9WaVIkwdg5AESoOecbLwjhZACRrp3Sf4I67dFuT2rvRdtmw+hBitX0hiDxpfHCd6M2/98D2eefTbeWkxkZOjS5x1iCK5gklcuRqdcuSSlWu3hqWef5aSzzmDeggXqv5YleIzAVes6vIZRFfDSNlYnLERxDJGl3mnz4svzeXr2HJ6ePYf5iwZIvfi1oziSqWreSwcg9JzuCJ51QCPeNWslzSE8A4C56c47/HEnn4LVPIVgFBpviSJLs9Vg/Nhx/N9nD+Rde+wOpKSJ05V7QnBUdbM8qUj+fU6jBms0/3m90WCgNkit0aDdlkiW9xDHEYXIUoiLVCoVent7qZReucyWkwlwWgYpiw/+0ihixlNPc+TXvsaL8+dT0AmwXcNEuq6orBVQNFUU68F1Pe4OiOKIgUUDvOvtu/G1I44iyo1aocJDXRu6a4NEmmr70oL5zHh8JtNnzmTmU88w57nnqA0O0u60AUO1UmG11VZj8rqTmLLRxkzZaCPWXXttKYGOzsPxAtLGzom7cO78l/nE/32BeqNOFEVqFJ50ClFJNzL36tezlma9xkbrTmbaoYew6UYbSVK8oZtHrEN68AaIouuiOORnFDQFE6DRajD7+ReZPnMmjz/xBLNmz+all19msF6n0WqRtHXpWJAQeGSJo5hquUxvtYc1V1+ddSety0brT2b9yeuy+mrjKcSaOeY9SZro5FbJT1iwaJDDvvY1HpkxnWq1KrnBWWnMkMy7FVIyBST8V8DZ9X9Ya2nUBjnwU5/m0wccQNqRdANUaYIBL+kDMvkBZjz9NNfccAN333svc55/gWazAUo3unnosthlqm7UUlxg1XHj2GLzLXj3Xu9k+623JrYWl5seF9rI6wgRGcvcl1/mE58/iFpjkDiKMbfceYf/2smnEBUKYigg2zA0a3W23XobjvzKl1lnzTU1KV4X5NZZ0dkDSTcPNUOqkysjDXoMNBo89MjD/O2BB3jw4X/w9KxZLFy0iCSR6Uk26iYbhQUKjeATjJewbaAZyq2LJVntc711JzF1yiZsPnUqm06ZQn+5ArqWho1jvnXuufz6it/R09cnC6p4g7EO5yzWamdcnBdlBZOgZeW9dvJAKxyQtDnhq0ez2867ZGkFoIaeuv1mPf88v7nicm6+7TZefGkecbFIXCgq7VRlid7IB4WoL86TJgntdodqucQO22zDf+2/P9tvtaXYWKqtw6nei2330ssv84nPf4Fasy7BoJvvvMN/7eSTiYoljPdYLK1Ok20325zjjp7GqmPH0ukkxFG0mLyObLCRh/OSbRXrkPPciy9y+113cePNtzD9iSdodjoC4EJEHMeZUz4YdqokhjxvuI3X9yEK5bwn7XRIkgTjPcVCgQ3Wn8x79t6bXd+yM+NXWYXrbr2VE087lUK5ovdZDLMwau2/4osVRFQRyXSqvIdY9KCo4gjXbjNh1VU489RTmLTmmqRpB1FaMl3r+ltu5fyfXcgzs2dRqpTkczUch9wop/+lxtU1rEiPrCV1jmazRU+5xAfe+14+8ZEP01upSo675qJ4J/bb83Pn8qmDvkij2RDKccudd/pjTzkZUyhigaSTMHZsP+d+80wmrrG6hEHDkC73zNxo0r0k+pY6yZk1wLPPP88frr6KG++8k9nPPYfFUizK7A5vJFcEJ/kWgLhuBKddt6QnVwnq1sl9ZsOaESFP03manTY4x/qTJrHLTjtx+9138/ScOZrHrLNacu6+FRXDr0UcYL3DIUGVyFqag4O8ZYftOelrx1AqFrDG8sJLL3HehRdx/c0347yhUCqQelm8smvNqHbywfeXI9+5LqSqGk8kW3IkHTrNBtttvTWHffnLTFKmEBnxUNnI8vCMGXzxyKPESAXshAnj6e3tU8tSGllcZjLEG9t1gRjUjxkKGIDtPYW4wKJajYt/+1u+Mu0ofnrJr3nhpZcoV6qUKmUwnpREhn3lsdol1ARRX6W6e4J7RqxX0aJWNbnNfJ0en0pGmTNQLlUol6s8NXs2F156CbNfeJ5SsSh+6FBtnu4QuFJeVcS0kFayCBbKvb3cde89/OLSSzHGcvu993DY147h99f+EVOIiYuF7pzD3GLxTnEi3hRRXgHX4neW33kFvAFIZE5ouaeXe/72N44+8UQef+YZ4jgmUS+KMYbHZkxnsFYTD5iB6MRvfOP4m2+/nXkLFxJHMZGNmL9wARuutx6bbrxxNn3eGwVyrtc55zLf4l8feJDTzjqLq669llq7Tala1fl2MtSDplyGAiugxMJWkOmX4cHDABi8ENKhtCOHN3qx/LBltXKNZNfIb/SnwUXFSg39T0WqJng1hPN5hE5OnzmdR2fM5JeXXcaL8+ZR7enNAiXh99IsipXQtsrJwyiceUuN2m7hN4HYGokhlMplXnxxLvc/8Hd22H47xo0Zg/Nyv5/84iJmzXmOYlF29bVjenvZaP3JtNsdjJHpOHEc8/urr2aw2cQYIxRBRwzhWjJFPooiWp0O5118MUeecAIPPPYYpZ4qhTiGJBVta0QHy4PoYdTwMwZrLBbZrswb6dmhLkL0KCQHedPdEcrk17dAcrIzv6NzAmTU0673Fo2zUkO/FhHffs7HbGQGi40srSTlpjvvoKPLKPg01aSk7sgq7SR1bYPuCUopUy7CGKWJpE3kfhKJlGuBT1N6eqrMePoZzvze96jVa8RxzEOPPMr9Dz5MpVIW49SDtdbyrj33ohRHMp3GO8rlMo/NmMnV112vERmPcQ5rZMuO1DmiQoEX5s3juJNO5ic/u5BOklAul7oBj6A8FcAy1HsxCEJoOX9oR+nmjmSKtWssKr3Jn4uXPu0DaL1UglGaEoY+0eDda6+Ufy5S51qfqgy8CXRQfMhG/cFi3ww9gm4RJditelFvQ9979Hd6T0KbiTbDa1i+p7eXP91zDxf+8hJaScJFl/yKWqOJNTHeGFpJG9NqtbyJLId+9Rj+cv8DVKriEUjSlL5yhZOOO46tN9uUpNMRnuI8USHmsSee5JQzz2L6449TqVbxSIy+q/lymjbQhNw3OuqMoIhZEK4d7rB07rWiiaIyaG6lbN2/tQdktfx6alzO7WImUEnw1pJ2Oozr62PzqVO54667iGKJn9jIsGhgIaZer/tKpcKtd97J1046iahcBjWc2q0Wa42fwLTDD2ObqZuJ2ySKuP/Rxzjx1NOY/fzz9PT2iQsnPLSo5UyrrkTUSnk94hG6Y7zuiGAM6OI6pWJRFqA3lqTdYuJaa2KazbovxEUwhhPOPJOrbryBsT39pK6DtRGdVpu+nl4++dGP8L599+Gxxx/n2JNO4qUFkoeKRg+HhCjCcKP7ZA/pvCtlpSyByCpUqhUzHKkdFqgqkDZbHH/00ZhWq5EBeu7ChRx2zDHMeHwmld4eXMeJzy9JSNIOW2y5BfNeepln58ymWK7q+hSa9dpVzkNlpYZeKa9HspHey17o4UMVE1nqgwN87IMf5KD/ORDTarZ8sVTEpSk2inh45kyO/cY3mD13LtVKBafrNngDzWZLl3uNM74sXGclWlfKSMvQyG7XIpK/jGrpwcFB3r33nhz1lYMpWItpNptefHjivYjjiEdmzBSD74nHqfT1ygWcRNkcMrEyqH7UJbdSVspSEa+eL41LeAxEhrTTIW02+c/37cf/+5/PUCmW8N5hGs2mLxWLWbAhrFPx3Isv8YPzz+emO+8gcSnlUlk0td4nw3N241x3WikrZaTE639KB5I0odFsssb41fjof36QD+23nyxKlKYyD7bVavliALQ6vl3qZJ8N77n5T3/ikssuY8aTT9JqtyFPi/Umso2DzDUcTqFXykp5fdI1wKyxjO3vY9edduaA//oA602c2J2poi7l/w/aGcnhA62zvQAAAABJRU5ErkJggg==;" vertex="1" parent="1">
          <mxGeometry x="472.95" y="238.5" width="100" height="100" as="geometry" />
        </mxCell>
      </root>
    </mxGraphModel>
  </diagram>
</mxfile>
